<svg xmlns="http://www.w3.org/2000/svg" viewBox="0 0 24 24" width="24" height="24"><path d="M3.71 11.99l-1.5-3.75h3l1.5 1.5h3l-1.5-7.5h3l3.75 7.5h4.5c0.29 0 0.58 0.06 0.85 0.17 0.28 0.1 0.52 0.27 0.73 0.48 0.43 0.42 0.66 1 0.66 1.6 0 0.6-0.23 1.17-0.66 1.59-0.42 0.42-0.99 0.66-1.59 0.66h-4.5l-3.75 7.5h-3l1.5-7.5h-3l-1.5 1.48h-3l1.51-3.73Z" fill="#000000"></path><path d="M11.21 22.26h-3c-0.07 0-0.14-0.02-0.21-0.05-0.07-0.03-0.13-0.08-0.18-0.14l-0.1-0.2v-0.21l1.38-6.9H6.92l-1.36 1.33c-0.09 0.1-0.21 0.15-0.35 0.15h-3c-0.08 0-0.16-0.02-0.23-0.06-0.07-0.04-0.13-0.1-0.18-0.16-0.04-0.07-0.06-0.15-0.06-0.23 0-0.09 0.02-0.17 0.06-0.24l1.42-3.56L1.8 8.42C1.76 8.35 1.74 8.27 1.74 8.19c0-0.08 0.02-0.16 0.06-0.23 0.05-0.07 0.11-0.12 0.18-0.16 0.07-0.04 0.15-0.06 0.23-0.06h3c0.13 0 0.26 0.05 0.35 0.14l1.36 1.36H9.1L7.72 2.33V2.11l0.1-0.19C7.87 1.86 7.93 1.82 8 1.79 8.07 1.75 8.14 1.74 8.2 1.74h3c0.1 0 0.19 0.02 0.27 0.07 0.08 0.05 0.14 0.12 0.18 0.2l3.61 7.23h4.18c0.37 0 0.74 0.06 1.08 0.2 0.35 0.14 0.66 0.34 0.92 0.6 0.52 0.52 0.8 1.22 0.8 1.95 0 0.72-0.28 1.42-0.8 1.94-0.26 0.26-0.57 0.47-0.91 0.6-0.35 0.14-0.72 0.21-1.09 0.21h-4.19l-3.6 7.22c-0.04 0.09-0.1 0.16-0.18 0.21-0.08 0.05-0.17 0.09-0.27 0.09Zm-2.39-1h2.08l3.61-7.23c0.05-0.08 0.11-0.15 0.2-0.2 0.07-0.05 0.16-0.07 0.25-0.07h4.5c0.46 0 0.9-0.19 1.23-0.52 0.33-0.33 0.51-0.77 0.51-1.23 0-0.47-0.18-0.91-0.5-1.24-0.34-0.33-0.78-0.51-1.25-0.51h-4.5c-0.09 0-0.18-0.03-0.26-0.08-0.08-0.05-0.14-0.12-0.19-0.2l-3.6-7.22H8.8l1.38 6.9c0.02 0.07 0.02 0.15 0 0.22s-0.05 0.14-0.1 0.2c-0.05 0.05-0.1 0.1-0.17 0.13s-0.14 0.05-0.22 0.05h-3c-0.13 0-0.25-0.06-0.35-0.15L5 8.76H3l1.23 3.06c0.04 0.12 0.04 0.25 0 0.37L3 15.26h2.06l1.35-1.34c0.1-0.1 0.22-0.14 0.35-0.14h3c0.08 0 0.15 0.01 0.22 0.05 0.07 0.03 0.13 0.07 0.17 0.13 0.05 0.06 0.08 0.13 0.1 0.2 0.02 0.07 0.02 0.15 0 0.22l-1.42 6.88Z" fill="#000000"></path></svg>