<svg xmlns="http://www.w3.org/2000/svg" viewBox="0 0 24 24" width="24" height="24"><path d="M8.25 21c0-0.41 0.34-0.75 0.75-0.75h6c0.41 0 0.75 0.34 0.75 0.75s-0.34 0.75-0.75 0.75H9c-0.41 0-0.75-0.34-0.75-0.75Z" fill="#000000" fill-rule="evenodd"></path><path d="M4.59 18.75c-0.27 0-0.53-0.07-0.75-0.2-0.23-0.14-0.42-0.33-0.55-0.56-0.13-0.23-0.2-0.49-0.2-0.75s0.08-0.52 0.2-0.75c0.93-1.86 1.35-3.93 1.23-6V9.74c0-0.99 0.19-1.97 0.57-2.88 0.37-0.92 0.93-1.75 1.64-2.44 0.7-0.7 1.52-1.25 2.44-1.62 0.91-0.37 1.9-0.56 2.89-0.56 1.98 0.03 3.87 0.85 5.26 2.27 1.39 1.42 2.16 3.32 2.16 5.31v0.67c-0.13 2.07 0.3 4.14 1.22 6 0.12 0.23 0.2 0.49 0.2 0.75s-0.06 0.52-0.2 0.75c-0.13 0.23-0.32 0.42-0.54 0.56-0.23 0.13-0.5 0.2-0.75 0.2H4.59Zm7.42-15c-0.78 0-1.55 0.15-2.27 0.45C9 4.5 8.34 4.93 7.77 5.5c-0.56 0.55-1 1.22-1.3 1.95-0.3 0.73-0.46 1.51-0.45 2.3v0.75c0.12 2.34-0.37 4.66-1.42 6.75h14.8c-1.05-2.09-1.55-4.41-1.42-6.75V9.83c0-0.79-0.14-1.57-0.43-2.3-0.3-0.74-0.73-1.4-1.28-1.97-0.55-0.56-1.2-1.02-1.93-1.33-0.73-0.3-1.5-0.47-2.3-0.48h-0.03Z" fill="#000000"></path></svg>