<svg xmlns="http://www.w3.org/2000/svg" viewBox="0 0 24 24" width="24" height="24"><path d="M3 12c0-0.41 0.34-0.75 0.75-0.75h16.5c0.41 0 0.75 0.34 0.75 0.75s-0.34 0.75-0.75 0.75H3.75C3.34 12.75 3 12.41 3 12Z" fill="#000000" fill-rule="evenodd"></path><path d="M3 6c0-0.41 0.34-0.75 0.75-0.75h16.5C20.66 5.25 21 5.59 21 6s-0.34 0.75-0.75 0.75H3.75C3.34 6.75 3 6.41 3 6Z" fill="#000000" fill-rule="evenodd"></path><path d="M3 18c0-0.41 0.34-0.75 0.75-0.75h16.5c0.41 0 0.75 0.34 0.75 0.75s-0.34 0.75-0.75 0.75H3.75C3.34 18.75 3 18.41 3 18Z" fill="#000000" fill-rule="evenodd"></path></svg>