<svg xmlns="http://www.w3.org/2000/svg" viewBox="0 0 24 24" width="24" height="24"><path d="M12 2.25c-1.93 0-3.81 0.57-5.42 1.64C4.98 4.96 3.73 6.5 3 8.27 2.25 10.05 2.06 12 2.44 13.9c0.37 1.9 1.3 3.63 2.67 5 1.36 1.36 3.1 2.29 4.99 2.66 1.89 0.38 3.85 0.19 5.63-0.55 1.78-0.74 3.3-1.99 4.38-3.6 1.07-1.6 1.64-3.48 1.64-5.41 0-2.58-1.03-5.06-2.86-6.9-1.83-1.82-4.3-2.85-6.89-2.85Zm3.53 12.22c0.07 0.07 0.13 0.15 0.16 0.24 0.04 0.1 0.06 0.2 0.06 0.29 0 0.1-0.02 0.2-0.06 0.29-0.03 0.09-0.09 0.17-0.16 0.24-0.07 0.07-0.15 0.13-0.24 0.16-0.1 0.04-0.2 0.06-0.29 0.06-0.1 0-0.2-0.02-0.29-0.06-0.09-0.03-0.17-0.09-0.24-0.16L12 13.06l-2.47 2.47C9.39 15.67 9.2 15.75 9 15.75s-0.39-0.08-0.53-0.22S8.25 15.2 8.25 15s0.08-0.39 0.22-0.53L10.94 12 8.47 9.53C8.33 9.39 8.25 9.2 8.25 9s0.08-0.39 0.22-0.53S8.8 8.25 9 8.25s0.39 0.08 0.53 0.22L12 10.94l2.47-2.47C14.61 8.33 14.8 8.25 15 8.25s0.39 0.08 0.53 0.22S15.75 8.8 15.75 9s-0.08 0.39-0.22 0.53L13.06 12l2.47 2.47Z" fill="#000000"></path></svg>