<svg xmlns="http://www.w3.org/2000/svg" viewBox="0 0 24 24" width="24" height="24"><path d="M16.67 9.23c0.28 0.3 0.27 0.78-0.03 1.06l-5.5 5.25c-0.29 0.28-0.74 0.28-1.03 0l-2.75-2.62c-0.3-0.29-0.31-0.76-0.03-1.06 0.29-0.3 0.76-0.31 1.06-0.03l2.23 2.13 4.99-4.75c0.3-0.29 0.77-0.28 1.06 0.02Z" fill="#000000" fill-rule="evenodd"></path><path d="M12 3.75c-4.56 0-8.25 3.7-8.25 8.25 0 4.56 3.7 8.25 8.25 8.25 4.56 0 8.25-3.7 8.25-8.25 0-4.56-3.7-8.25-8.25-8.25ZM2.25 12c0-5.38 4.37-9.75 9.75-9.75s9.75 4.37 9.75 9.75-4.37 9.75-9.75 9.75S2.25 17.38 2.25 12Z" fill="#000000" fill-rule="evenodd"></path></svg>