<svg xmlns="http://www.w3.org/2000/svg" viewBox="0 0 24 24" width="24" height="24"><path d="M22.5 19.5h-0.75V9.75c0-0.4-0.16-0.78-0.44-1.06s-0.66-0.44-1.06-0.44h-6v-4.5c0-0.4-0.16-0.78-0.44-1.06s-0.66-0.44-1.06-0.44h-9c-0.4 0-0.78 0.16-1.06 0.44S2.25 3.35 2.25 3.75V19.5H1.5c-0.2 0-0.39 0.08-0.53 0.22s-0.22 0.33-0.22 0.53 0.08 0.39 0.22 0.53S1.3 21 1.5 21h21c0.2 0 0.39-0.08 0.53-0.22s0.22-0.33 0.22-0.53-0.08-0.4-0.22-0.53c-0.14-0.14-0.33-0.22-0.53-0.22Zm-11.25-6.75c0 0.2-0.08 0.39-0.22 0.53S10.7 13.5 10.5 13.5h-3c-0.2 0-0.39-0.08-0.53-0.22s-0.22-0.33-0.22-0.53 0.08-0.4 0.22-0.53C7.1 12.08 7.3 12 7.5 12h3c0.2 0 0.39 0.08 0.53 0.22s0.22 0.33 0.22 0.53ZM6 6h3c0.2 0 0.39 0.08 0.53 0.22s0.22 0.33 0.22 0.53-0.08 0.39-0.22 0.53S9.2 7.5 9 7.5H6c-0.2 0-0.39-0.08-0.53-0.22S5.25 6.95 5.25 6.75s0.08-0.4 0.22-0.53C5.6 6.08 5.8 6 6 6Zm0 9.75h3c0.2 0 0.39 0.08 0.53 0.22s0.22 0.33 0.22 0.53-0.08 0.39-0.22 0.53S9.2 17.25 9 17.25H6c-0.2 0-0.39-0.08-0.53-0.22S5.25 16.7 5.25 16.5s0.08-0.4 0.22-0.53C5.6 15.83 5.8 15.75 6 15.75Zm8.25-6h6v9.75h-6V9.75Z" fill="#000000"></path><path d="M18 15.75h-1.5c-0.2 0-0.39 0.08-0.53 0.22s-0.22 0.33-0.22 0.53 0.08 0.39 0.22 0.53 0.33 0.22 0.53 0.22H18c0.2 0 0.39-0.08 0.53-0.22s0.22-0.33 0.22-0.53-0.08-0.4-0.22-0.53c-0.14-0.14-0.33-0.22-0.53-0.22Z" fill="#000000"></path><path d="M16.5 13.5H18c0.2 0 0.39-0.08 0.53-0.22s0.22-0.33 0.22-0.53-0.08-0.4-0.22-0.53C18.39 12.08 18.2 12 18 12h-1.5c-0.2 0-0.39 0.08-0.53 0.22s-0.22 0.33-0.22 0.53 0.08 0.39 0.22 0.53 0.33 0.22 0.53 0.22Z" fill="#000000"></path></svg>