<svg xmlns="http://www.w3.org/2000/svg" viewBox="0 0 24 24" width="24" height="24"><path d="M8.38 3.33C8.5 3.13 8.75 3 9 3h6c0.25 0 0.48 0.13 0.62 0.33l1.28 1.92h2.6c0.6 0 1.17 0.24 1.6 0.66 0.41 0.42 0.65 1 0.65 1.59V18c0 0.6-0.24 1.17-0.66 1.6-0.42 0.41-1 0.65-1.59 0.65h-15c-0.6 0-1.17-0.24-1.6-0.66-0.41-0.42-0.65-1-0.65-1.59V7.5c0-0.6 0.24-1.17 0.66-1.6 0.42-0.41 1-0.65 1.59-0.65h2.6l1.28-1.92ZM9.4 4.5L8.12 6.42C7.98 6.62 7.75 6.75 7.5 6.75h-3c-0.2 0-0.39 0.08-0.53 0.22S3.75 7.3 3.75 7.5V18c0 0.2 0.08 0.39 0.22 0.53s0.33 0.22 0.53 0.22h15c0.2 0 0.39-0.08 0.53-0.22s0.22-0.33 0.22-0.53V7.5c0-0.2-0.08-0.39-0.22-0.53S19.7 6.75 19.5 6.75h-3c-0.25 0-0.49-0.13-0.62-0.33L14.6 4.5H9.4Z" fill="#000000" fill-rule="evenodd"></path><path d="M12 9.75c-1.45 0-2.63 1.18-2.63 2.63C9.38 13.81 10.55 15 12 15s2.63-1.18 2.63-2.63c0-1.44-1.18-2.62-2.63-2.62Zm-4.13 2.63c0-2.28 1.85-4.13 4.13-4.13s4.13 1.85 4.13 4.13c0 2.27-1.85 4.12-4.13 4.12s-4.13-1.85-4.13-4.13Z" fill="#000000" fill-rule="evenodd"></path></svg>