<svg xmlns="http://www.w3.org/2000/svg" viewBox="0 0 24 24" width="24" height="24"><path d="M3.6 7.33L17.83 3.5c0.53-0.14 1.08 0.18 1.22 0.71l1.01 3.77c0.16 0.6-0.33 1.17-0.95 1.1L3.6 7.33Z" fill="#FFB3AE"></path><path d="M19.9 6.94c0.3 0 0.57 0.12 0.78 0.32 0.2 0.2 0.32 0.49 0.32 0.78v2.04c0 0.25-0.09 0.5-0.25 0.7-0.16 0.2-0.38 0.33-0.63 0.38-0.5 0.1-0.94 0.37-1.26 0.76-0.32 0.4-0.5 0.88-0.5 1.39 0 0.5 0.18 1 0.5 1.39 0.32 0.39 0.77 0.66 1.26 0.76 0.25 0.05 0.47 0.18 0.63 0.38 0.16 0.2 0.25 0.44 0.25 0.7v2.04c0 0.29-0.12 0.57-0.32 0.77-0.2 0.2-0.49 0.32-0.78 0.32H4.1c-0.3 0-0.57-0.11-0.78-0.32C3.12 19.15 3 18.87 3 18.58v-2.05c0-0.25 0.09-0.5 0.25-0.7 0.16-0.19 0.38-0.32 0.63-0.37 0.5-0.1 0.94-0.37 1.26-0.76 0.32-0.4 0.5-0.89 0.5-1.4 0-0.5-0.18-0.99-0.5-1.38-0.32-0.4-0.77-0.66-1.26-0.76-0.25-0.05-0.47-0.19-0.63-0.38C3.09 10.58 3 10.33 3 10.08V8.04c0-0.3 0.12-0.57 0.32-0.78 0.2-0.2 0.49-0.32 0.78-0.32h15.8Z" fill="#F74C40"></path><path d="M8.84 15.2l5.26-5.28c0.3-0.29 0.77-0.29 1.06 0 0.3 0.3 0.3 0.77 0 1.06L9.9 16.25c-0.3 0.3-0.77 0.3-1.06 0-0.3-0.29-0.3-0.77 0-1.06Z" fill="#FFFFFF"></path><path d="M10.73 10.78c0 0.7-0.56 1.25-1.25 1.25-0.7 0-1.25-0.56-1.25-1.25s0.56-1.25 1.25-1.25 1.25 0.56 1.25 1.25Z" fill="#FFFFFF"></path><path d="M9.61 10.78c0-0.07-0.06-0.14-0.13-0.14-0.08 0-0.14 0.07-0.14 0.14 0 0.08 0.06 0.14 0.14 0.14v1.11c-0.7 0-1.25-0.56-1.25-1.25s0.56-1.25 1.25-1.25 1.25 0.56 1.25 1.25c0 0.7-0.56 1.25-1.25 1.25v-1.1c0.07 0 0.13-0.07 0.13-0.15Z" fill="#FFFFFF"></path><path d="M15.77 15.4c0 0.68-0.55 1.24-1.25 1.24-0.69 0-1.25-0.56-1.25-1.25s0.56-1.25 1.25-1.25c0.7 0 1.25 0.56 1.25 1.25Z" fill="#FFFFFF"></path><path d="M14.66 15.4c0-0.08-0.06-0.15-0.14-0.15-0.07 0-0.13 0.07-0.13 0.14 0 0.08 0.06 0.14 0.13 0.14v1.11c-0.69 0-1.25-0.56-1.25-1.25s0.56-1.25 1.25-1.25c0.7 0 1.25 0.56 1.25 1.25 0 0.7-0.55 1.25-1.25 1.25v-1.1c0.08 0 0.14-0.07 0.14-0.15Z" fill="#FFFFFF"></path></svg>