<svg xmlns="http://www.w3.org/2000/svg" viewBox="0 0 24 24" width="24" height="24"><path d="M22.06 19.06C21.78 19.34 21.4 19.5 21 19.5H3c-0.4 0-0.78-0.16-1.06-0.44S1.5 18.4 1.5 18v-2.33c0-0.34 0.13-0.68 0.34-0.94 0.22-0.27 0.52-0.46 0.86-0.53 0.5-0.1 0.97-0.38 1.29-0.78 0.33-0.4 0.51-0.9 0.51-1.42 0-0.52-0.18-1.02-0.51-1.42-0.33-0.4-0.78-0.68-1.29-0.79-0.34-0.06-0.65-0.25-0.86-0.52C1.62 9.01 1.5 8.67 1.5 8.33V6c0-0.4 0.16-0.78 0.44-1.06S2.6 4.5 3 4.5h18c0.4 0 0.78 0.16 1.06 0.44S22.5 5.6 22.5 6v2.33c0 0.34-0.13 0.68-0.34 0.94-0.22 0.27-0.52 0.46-0.86 0.53-0.5 0.1-0.97 0.38-1.29 0.78-0.33 0.4-0.51 0.9-0.51 1.42 0 0.52 0.18 1.02 0.51 1.42 0.33 0.4 0.78 0.68 1.29 0.79 0.34 0.06 0.65 0.25 0.86 0.52 0.22 0.26 0.34 0.6 0.34 0.94V18c0 0.4-0.16 0.78-0.44 1.06ZM21 18v-2.33c-0.85-0.17-1.61-0.63-2.16-1.3C18.3 13.7 18 12.87 18 12c0-0.86 0.29-1.7 0.84-2.37 0.54-0.67 1.3-1.13 2.16-1.3V6H3v2.33c0.84 0.17 1.6 0.63 2.15 1.3C5.69 10.3 5.99 11.13 6 12c0 0.86-0.3 1.7-0.85 2.37-0.54 0.67-1.3 1.13-2.15 1.3V18h18Z" fill="#000000" fill-rule="evenodd"></path><path d="M15.53 8.22c0.29 0.3 0.29 0.77 0 1.06l-6 6c-0.3 0.3-0.77 0.3-1.07 0-0.29-0.3-0.29-0.77 0-1.06l6-6c0.3-0.3 0.77-0.3 1.07 0Z" fill="#000000" fill-rule="evenodd"></path><path d="M10.25 9.13c0 0.62-0.5 1.12-1.13 1.12C8.5 10.25 8 9.75 8 9.12 8 8.5 8.5 8 9.12 8c0.62 0 1.13 0.5 1.13 1.13Z" fill="#000000"></path><path d="M16 14.38c0 0.62-0.5 1.12-1.13 1.12-0.62 0-1.12-0.5-1.12-1.13 0-0.62 0.5-1.12 1.12-1.12 0.62 0 1.13 0.5 1.13 1.13Z" fill="#000000"></path></svg>