<svg xmlns="http://www.w3.org/2000/svg" viewBox="0 0 24 24" width="24" height="24"><path d="M16.5 1.5c0.41 0 0.75 0.34 0.75 0.75v3C17.25 5.66 16.91 6 16.5 6s-0.75-0.34-0.75-0.75v-3c0-0.41 0.34-0.75 0.75-0.75Z" fill="#000000" fill-rule="evenodd"></path><path d="M7.5 1.5c0.41 0 0.75 0.34 0.75 0.75v3C8.25 5.66 7.91 6 7.5 6S6.75 5.66 6.75 5.25v-3c0-0.41 0.34-0.75 0.75-0.75Z" fill="#000000" fill-rule="evenodd"></path><path d="M2.25 6c0-1.52 1.23-2.75 2.75-2.75h14c1.52 0 2.75 1.23 2.75 2.75v12c0 1.52-1.23 2.75-2.75 2.75H5c-1.52 0-2.75-1.23-2.75-2.75V6ZM5 4.75C4.31 4.75 3.75 5.31 3.75 6v12c0 0.69 0.56 1.25 1.25 1.25h14c0.69 0 1.25-0.56 1.25-1.25V6c0-0.69-0.56-1.25-1.25-1.25H5Z" fill="#000000" fill-rule="evenodd"></path><path d="M3 8.25C3 7.84 3.34 7.5 3.75 7.5h16.5C20.66 7.5 21 7.84 21 8.25S20.66 9 20.25 9H3.75C3.34 9 3 8.66 3 8.25Z" fill="#000000" fill-rule="evenodd"></path><path d="M3 9c0-0.55 0.45-1 1-1h16c0.55 0 1 0.45 1 1v10c0 0.55-0.45 1-1 1H4c-0.55 0-1-0.45-1-1V9Z" fill="#000000"></path></svg>