<svg xmlns="http://www.w3.org/2000/svg" viewBox="0 0 24 24" width="24" height="24"><path d="M0.75 20.25c0-0.42 0.34-0.75 0.75-0.75h21c0.41 0 0.75 0.33 0.75 0.75 0 0.41-0.34 0.75-0.75 0.75h-21c-0.41 0-0.75-0.34-0.75-0.75Z" fill="#000000" fill-rule="evenodd"></path><path d="M2.69 2.69C2.97 2.4 3.35 2.25 3.75 2.25h9c0.4 0 0.78 0.16 1.06 0.44s0.44 0.66 0.44 1.06v16.5c0 0.41-0.34 0.75-0.75 0.75s-0.75-0.34-0.75-0.75V3.75h-9v16.5C3.75 20.66 3.4 21 3 21s-0.75-0.34-0.75-0.75V3.75c0-0.4 0.16-0.78 0.44-1.06Z" fill="#000000" fill-rule="evenodd"></path><path d="M12.75 9c0-0.42 0.34-0.75 0.75-0.75h6.75c0.4 0 0.78 0.16 1.06 0.44s0.44 0.66 0.44 1.06v10.5c0 0.41-0.34 0.75-0.75 0.75s-0.75-0.34-0.75-0.75V9.75H13.5c-0.41 0-0.75-0.34-0.75-0.75Z" fill="#000000" fill-rule="evenodd"></path><path d="M5.25 6.75C5.25 6.33 5.59 6 6 6h3C9.4 6 9.75 6.33 9.75 6.75 9.75 7.16 9.4 7.5 9 7.5H6c-0.41 0-0.75-0.34-0.75-0.75Z" fill="#000000" fill-rule="evenodd"></path><path d="M6.75 12.75C6.75 12.33 7.09 12 7.5 12h3c0.41 0 0.75 0.33 0.75 0.75 0 0.41-0.34 0.75-0.75 0.75h-3c-0.41 0-0.75-0.34-0.75-0.75Z" fill="#000000" fill-rule="evenodd"></path><path d="M5.25 16.5c0-0.42 0.34-0.75 0.75-0.75h3c0.41 0 0.75 0.33 0.75 0.75 0 0.41-0.34 0.75-0.75 0.75H6c-0.41 0-0.75-0.34-0.75-0.75Z" fill="#000000" fill-rule="evenodd"></path><path d="M15.75 16.5c0-0.42 0.34-0.75 0.75-0.75H18c0.41 0 0.75 0.33 0.75 0.75 0 0.41-0.34 0.75-0.75 0.75h-1.5c-0.41 0-0.75-0.34-0.75-0.75Z" fill="#000000" fill-rule="evenodd"></path><path d="M15.75 12.75c0-0.42 0.34-0.75 0.75-0.75H18c0.41 0 0.75 0.33 0.75 0.75 0 0.41-0.34 0.75-0.75 0.75h-1.5c-0.41 0-0.75-0.34-0.75-0.75Z" fill="#000000" fill-rule="evenodd"></path></svg>