<svg xmlns="http://www.w3.org/2000/svg" viewBox="0 0 24 24" width="24" height="24"><path d="M14.08 2.73c-1.1-1.26-3.06-1.26-4.16 0L9.4 3.33C9.12 3.66 8.7 3.81 8.26 3.75L7.48 3.62c-1.65-0.26-3.15 1-3.18 2.67l-0.01 0.8C4.28 7.5 4.05 7.9 3.68 8.12L3 8.54c-1.43 0.86-1.77 2.8-0.72 4.1l0.5 0.6c0.27 0.34 0.35 0.8 0.2 1.2L2.74 15.2c-0.54 1.58 0.44 3.28 2.08 3.6l0.78 0.15C6 19.02 6.36 19.32 6.5 19.72l0.29 0.74c0.6 1.56 2.44 2.23 3.9 1.42l0.7-0.39c0.37-0.2 0.83-0.2 1.2 0l0.7 0.39c1.46 0.81 3.3 0.14 3.9-1.42l0.29-0.74c0.15-0.4 0.5-0.7 0.93-0.78l0.77-0.15c1.64-0.32 2.62-2.02 2.08-3.6l-0.26-0.75c-0.14-0.4-0.06-0.86 0.21-1.2l0.5-0.6c1.05-1.3 0.71-3.24-0.72-4.1l-0.68-0.4c-0.37-0.23-0.6-0.63-0.6-1.06L19.7 6.3c-0.03-1.67-1.53-2.93-3.18-2.67l-0.78 0.13c-0.43 0.06-0.86-0.1-1.14-0.42l-0.52-0.6ZM9.17 10.8c0.82 0 1.5-0.68 1.5-1.5 0-0.83-0.68-1.5-1.5-1.5-0.83 0-1.5 0.67-1.5 1.5 0 0.82 0.67 1.5 1.5 1.5Zm7.5 4.5c0 0.82-0.68 1.5-1.5 1.5-0.83 0-1.5-0.68-1.5-1.5 0-0.83 0.67-1.5 1.5-1.5 0.82 0 1.5 0.67 1.5 1.5Zm-0.92-5.52c0.29-0.3 0.29-0.77 0-1.06-0.3-0.3-0.77-0.3-1.06 0l-6 6c-0.3 0.29-0.3 0.76 0 1.06 0.29 0.29 0.76 0.29 1.06 0l6-6Z" fill="#000000" fill-rule="evenodd"></path></svg>