<svg xmlns="http://www.w3.org/2000/svg" viewBox="0 0 24 24" width="24" height="24"><path d="M15.53 8.47c0.3 0.3 0.3 0.77 0 1.06l-6 6c-0.3 0.3-0.77 0.3-1.06 0-0.3-0.3-0.3-0.77 0-1.06l6-6c0.3-0.3 0.77-0.3 1.06 0Z" fill="#000000"></path><path d="M10.25 9.38c0 0.62-0.5 1.12-1.12 1.12C8.5 10.5 8 10 8 9.37c0-0.62 0.5-1.12 1.13-1.12 0.62 0 1.12 0.5 1.12 1.13Z" fill="#000000"></path><path d="M14.88 15.75c0.62 0 1.12-0.5 1.12-1.13 0-0.62-0.5-1.12-1.13-1.12-0.62 0-1.12 0.5-1.12 1.13 0 0.62 0.5 1.12 1.13 1.12Z" fill="#000000"></path><path d="M9.92 2.5c1.1-1.27 3.06-1.27 4.16 0l0.52 0.6c0.28 0.32 0.71 0.48 1.14 0.4l0.78-0.12c1.65-0.26 3.15 1 3.18 2.67l0.01 0.8c0.01 0.43 0.24 0.82 0.6 1.05L21 8.3c1.43 0.87 1.77 2.8 0.72 4.1L21.22 13c-0.27 0.34-0.35 0.79-0.2 1.2l0.25 0.74c0.54 1.58-0.44 3.28-2.08 3.6l-0.78 0.15c-0.42 0.08-0.77 0.38-0.92 0.78l-0.29 0.74c-0.6 1.56-2.44 2.23-3.9 1.42l-0.7-0.38c-0.37-0.21-0.83-0.21-1.2 0l-0.7 0.38c-1.46 0.81-3.3 0.14-3.9-1.42L6.5 19.48c-0.15-0.4-0.5-0.7-0.92-0.78L4.8 18.55c-1.64-0.32-2.62-2.02-2.08-3.6L3 14.2c0.14-0.4 0.06-0.85-0.21-1.19l-0.5-0.62C1.23 11.1 1.57 9.17 3 8.31L3.68 7.9c0.37-0.23 0.6-0.62 0.6-1.05l0.02-0.8c0.03-1.67 1.53-2.93 3.18-2.67l0.78 0.13C8.7 3.58 9.12 3.42 9.4 3.09l0.52-0.6Zm3.02 0.98c-0.5-0.57-1.39-0.57-1.88 0l-0.52 0.6C9.9 4.79 8.97 5.14 8.03 4.99L7.25 4.87C6.5 4.75 5.8 5.32 5.8 6.07l-0.01 0.8C5.77 7.82 5.27 8.7 4.45 9.18L3.77 9.6c-0.65 0.4-0.8 1.27-0.32 1.86l0.5 0.62c0.6 0.73 0.77 1.73 0.46 2.62l-0.26 0.75c-0.25 0.72 0.2 1.5 0.94 1.64l0.78 0.15c0.93 0.18 1.7 0.83 2.05 1.71l0.28 0.74c0.27 0.71 1.1 1.02 1.77 0.65l0.7-0.39c0.83-0.46 1.83-0.46 2.66 0l0.7 0.39c0.66 0.37 1.5 0.06 1.77-0.65l0.29-0.74c0.33-0.88 1.1-1.53 2.04-1.71l0.78-0.15c0.74-0.15 1.19-0.92 0.94-1.64L19.6 14.7c-0.3-0.9-0.13-1.89 0.47-2.62l0.5-0.62c0.47-0.6 0.32-1.47-0.33-1.86l-0.68-0.4c-0.82-0.5-1.32-1.37-1.34-2.32l-0.01-0.8c-0.01-0.75-0.7-1.32-1.45-1.2l-0.78 0.12c-0.94 0.15-1.88-0.2-2.5-0.91l-0.53-0.6Z" fill="#000000" fill-rule="evenodd"></path></svg>