<svg xmlns="http://www.w3.org/2000/svg" viewBox="0 0 24 24" width="24" height="24"><path d="M17.47 2.47c0.3-0.3 0.77-0.3 1.06 0l3 3c0.3 0.3 0.3 0.77 0 1.06l-9 9c-0.14 0.14-0.33 0.22-0.53 0.22H9c-0.41 0-0.75-0.34-0.75-0.75v-3c0-0.2 0.08-0.39 0.22-0.53l9-9Zm-7.72 9.84v1.94h1.94L19.94 6 18 4.06l-8.25 8.25Z" fill="#000000" fill-rule="evenodd"></path><path d="M15.22 4.72c0.3-0.3 0.77-0.3 1.06 0l3 3c0.3 0.3 0.3 0.77 0 1.06-0.3 0.3-0.77 0.3-1.06 0l-3-3c-0.3-0.3-0.3-0.77 0-1.06Z" fill="#000000" fill-rule="evenodd"></path><path d="M3.44 3.44C3.72 3.16 4.1 3 4.5 3h8.25c0.41 0 0.75 0.34 0.75 0.75S13.16 4.5 12.75 4.5H4.5v15h15v-8.25c0-0.41 0.34-0.75 0.75-0.75S21 10.84 21 11.25v8.25c0 0.4-0.16 0.78-0.44 1.06S19.9 21 19.5 21h-15c-0.4 0-0.78-0.16-1.06-0.44S3 19.9 3 19.5v-15c0-0.4 0.16-0.78 0.44-1.06Z" fill="#000000" fill-rule="evenodd"></path></svg>