<svg xmlns="http://www.w3.org/2000/svg" viewBox="0 0 24 24" width="24" height="24"><path d="M12 3.75c-4.56 0-8.25 3.7-8.25 8.25 0 4.56 3.7 8.25 8.25 8.25 4.56 0 8.25-3.7 8.25-8.25 0-4.56-3.7-8.25-8.25-8.25ZM2.25 12c0-5.38 4.37-9.75 9.75-9.75s9.75 4.37 9.75 9.75-4.37 9.75-9.75 9.75S2.25 17.38 2.25 12Z" fill="#000000" fill-rule="evenodd"></path><path d="M2.25 12c0-0.41 0.34-0.75 0.75-0.75h18c0.41 0 0.75 0.34 0.75 0.75s-0.34 0.75-0.75 0.75H3c-0.41 0-0.75-0.34-0.75-0.75Z" fill="#000000" fill-rule="evenodd"></path><path d="M10.04 6.1C9.4 7.57 9 9.66 9 12c0 2.34 0.4 4.43 1.04 5.9 0.31 0.73 0.67 1.28 1.03 1.64C11.42 19.89 11.74 20 12 20s0.58-0.12 0.93-0.47c0.36-0.36 0.72-0.9 1.03-1.64C14.6 16.43 15 14.34 15 12c0-2.34-0.4-4.43-1.04-5.9-0.31-0.73-0.67-1.28-1.03-1.64C12.58 4.11 12.26 4 12 4s-0.58 0.12-0.93 0.47c-0.36 0.36-0.72 0.9-1.03 1.64ZM10 3.4c0.55-0.54 1.22-0.9 1.99-0.9s1.44 0.36 1.99 0.9c0.54 0.53 0.99 1.26 1.35 2.11 0.73 1.7 1.16 4 1.16 6.49 0 2.5-0.43 4.79-1.16 6.49-0.36 0.85-0.81 1.58-1.35 2.11-0.55 0.54-1.22 0.9-1.99 0.9s-1.44-0.36-1.99-0.9c-0.54-0.53-0.99-1.26-1.35-2.11-0.73-1.7-1.16-4-1.16-6.49 0-2.5 0.43-4.79 1.16-6.49C9.02 4.66 9.47 3.93 10 3.4Z" fill="#000000" fill-rule="evenodd"></path></svg>