<svg xmlns="http://www.w3.org/2000/svg" viewBox="0 0 24 24" width="24" height="24"><path d="M7.15 6.3c0.2 0.36 0.08 0.81-0.28 1.02-1.64 0.92-2.82 2.17-3.59 3.2-0.38 0.52-0.66 0.97-0.84 1.3L2.34 12c0.09 0.17 0.21 0.39 0.38 0.65 0.38 0.6 0.95 1.4 1.75 2.2C6.05 16.42 8.5 18 12 18c1.91 0 3.5-0.47 4.81-1.15 0.37-0.19 0.82-0.04 1.01 0.33 0.2 0.36 0.05 0.82-0.32 1-1.5 0.79-3.33 1.32-5.5 1.32-4 0-6.8-1.8-8.6-3.6-0.88-0.89-1.53-1.78-1.95-2.45-0.21-0.33-0.37-0.61-0.47-0.81L0.86 12.4l-0.03-0.07-0.01-0.02L1.5 12l-0.69-0.3v-0.01l0.01-0.01 0.02-0.04 0.06-0.12 0.23-0.44c0.21-0.37 0.53-0.88 0.95-1.45C2.94 8.48 4.26 7.07 6.13 6 6.5 5.81 6.95 5.94 7.15 6.3ZM1.5 12l-0.69-0.3c-0.08 0.19-0.08 0.41 0 0.6L1.5 12Zm0.68 0.3Z" fill="#000000" fill-rule="evenodd"></path><path d="M9.87 8.83c0.3 0.29 0.3 0.76 0 1.06C9.33 10.43 9 11.18 9 12c0 1.66 1.34 3 3 3 0.77 0 1.48-0.3 2-0.77 0.32-0.28 0.79-0.25 1.07 0.05 0.27 0.31 0.25 0.79-0.06 1.06-0.8 0.72-1.85 1.16-3.01 1.16-2.49 0-4.5-2.01-4.5-4.5 0-1.24 0.5-2.36 1.3-3.17 0.3-0.3 0.77-0.3 1.07 0Z" fill="#000000" fill-rule="evenodd"></path><path d="M8.65 4.96C9.66 4.66 10.78 4.5 12 4.5c4 0 6.8 1.8 8.6 3.6 0.88 0.89 1.53 1.78 1.95 2.45 0.21 0.33 0.37 0.61 0.47 0.81l0.12 0.24 0.03 0.07 0.01 0.02L22.5 12l0.69 0.3-0.01 0.02-0.01 0.02-0.04 0.09-0.16 0.3c-0.13 0.25-0.34 0.6-0.62 1.03-0.55 0.83-1.4 1.9-2.59 2.9-0.32 0.28-0.79 0.24-1.06-0.08-0.26-0.32-0.22-0.8 0.1-1.06 1.05-0.89 1.8-1.85 2.3-2.6 0.25-0.37 0.43-0.68 0.55-0.9L21.66 12c-0.09-0.17-0.21-0.39-0.38-0.66-0.38-0.6-0.95-1.39-1.75-2.19C17.94 7.57 15.5 6 12 6c-1.08 0-2.06 0.15-2.94 0.4-0.4 0.11-0.8-0.12-0.92-0.52s0.12-0.81 0.51-0.92ZM22.5 12l0.69 0.3c0.08-0.19 0.08-0.41 0-0.6L22.5 12Z" fill="#000000" fill-rule="evenodd"></path><path d="M12 9c-0.14 0-0.29 0.01-0.43 0.03-0.4 0.06-0.79-0.23-0.84-0.64-0.06-0.4 0.22-0.79 0.63-0.85C11.57 7.52 11.78 7.5 12 7.5c2.49 0 4.5 2.01 4.5 4.5 0 0.22-0.02 0.43-0.04 0.64-0.06 0.4-0.44 0.7-0.85 0.63-0.41-0.05-0.7-0.43-0.64-0.84C14.99 12.29 15 12.14 15 12c0-1.66-1.34-3-3-3Z" fill="#000000" fill-rule="evenodd"></path><path d="M3.47 3.47c0.3-0.3 0.77-0.3 1.06 0l16 16c0.3 0.3 0.3 0.77 0 1.06-0.3 0.3-0.77 0.3-1.06 0l-16-16c-0.3-0.3-0.3-0.77 0-1.06Z" fill="#000000" fill-rule="evenodd"></path></svg>