<svg xmlns="http://www.w3.org/2000/svg" viewBox="0 0 24 24" width="24" height="24"><path d="M14.03 2.92c0.01-0.25-0.1-0.5-0.3-0.65-0.19-0.15-0.45-0.2-0.69-0.12-1.2 0.4-2.61 1.7-3.36 3.51-0.7 1.68-0.83 3.8 0.25 6.12-0.75 0.19-1.41 0.15-1.9-0.06-0.6-0.27-1.14-0.88-1.26-2.21C6.75 9.2 6.54 8.94 6.24 8.85c-0.29-0.09-0.6 0.01-0.8 0.25-1.7 2.13-2.53 5.06-1.9 7.61 0.32 1.3 1.02 2.48 2.16 3.4 1.14 0.9 2.67 1.51 4.63 1.7 0.3 0.04 0.57-0.1 0.72-0.36 0.15-0.26 0.13-0.57-0.04-0.81-0.22-0.33-0.43-0.98-0.31-1.66 0.1-0.57 0.43-1.21 1.3-1.73 0.77 0.54 1.1 1.05 1.23 1.53 0.14 0.55 0.03 1.21-0.35 2.04-0.12 0.25-0.09 0.55 0.08 0.77 0.18 0.22 0.45 0.33 0.73 0.28 4.18-0.74 6.3-3.04 6.84-5.64 0.52-2.51-0.47-5.18-2.25-6.59l-0.94-0.72c-0.84-0.62-1.57-1.18-2.18-1.9-0.76-0.93-1.27-2.13-1.13-4.1Z" fill="#000000" fill-rule="evenodd"></path></svg>