<svg xmlns="http://www.w3.org/2000/svg" viewBox="0 0 24 24" width="24" height="24"><path d="M3.75 15.37h10.13c0.4 0 0.74 0.34 0.74 0.75 0 0.42-0.33 0.75-0.74 0.75H3.74C3.34 16.87 3 16.54 3 16.12c0-0.41 0.34-0.75 0.75-0.75Z" fill="#000000" fill-rule="evenodd"></path><path d="M16.88 16.12c0-0.41 0.33-0.75 0.75-0.75h2.62c0.41 0 0.75 0.34 0.75 0.75 0 0.42-0.34 0.75-0.75 0.75h-2.63c-0.4 0-0.75-0.33-0.75-0.75Z" fill="#000000" fill-rule="evenodd"></path><path d="M15.75 15c-0.62 0-1.13 0.5-1.13 1.12 0 0.63 0.5 1.13 1.13 1.13 0.62 0 1.13-0.5 1.13-1.13 0-0.62-0.5-1.12-1.13-1.12Zm-2.63 1.12c0-1.45 1.18-2.62 2.63-2.62s2.63 1.17 2.63 2.62c0 1.45-1.18 2.63-2.63 2.63s-2.63-1.18-2.63-2.63Z" fill="#000000" fill-rule="evenodd"></path><path d="M3 7.87c0-0.41 0.34-0.75 0.75-0.75h4.13c0.4 0 0.75 0.34 0.75 0.75 0 0.42-0.34 0.75-0.76 0.75H3.75C3.34 8.62 3 8.3 3 7.87Z" fill="#000000" fill-rule="evenodd"></path><path d="M11.63 7.12h8.62c0.41 0 0.75 0.34 0.75 0.75 0 0.42-0.34 0.75-0.75 0.75h-8.63c-0.4 0-0.74-0.33-0.74-0.75 0-0.41 0.33-0.75 0.74-0.75Z" fill="#000000" fill-rule="evenodd"></path><path d="M9.75 6.75c-0.62 0-1.13 0.5-1.13 1.12C8.63 8.5 9.13 9 9.75 9c0.62 0 1.13-0.5 1.13-1.13 0-0.62-0.5-1.12-1.13-1.12ZM7.12 7.87c0-1.45 1.18-2.62 2.63-2.62s2.63 1.17 2.63 2.62c0 1.45-1.18 2.63-2.63 2.63S7.12 9.32 7.12 7.87Z" fill="#000000" fill-rule="evenodd"></path></svg>