<svg xmlns="http://www.w3.org/2000/svg" viewBox="0 0 24 24" width="24" height="24"><path d="M20.23 11.08c-0.03-0.12-0.09-0.23-0.17-0.33-0.08-0.09-0.18-0.16-0.3-0.2l-5.4-2.03 1.38-6.87c0.03-0.16 0-0.33-0.06-0.48-0.08-0.14-0.2-0.26-0.34-0.34-0.14-0.07-0.3-0.1-0.47-0.07-0.16 0.03-0.3 0.1-0.42 0.23L3.95 12.24c-0.08 0.09-0.14 0.2-0.17 0.32-0.04 0.12-0.04 0.24-0.01 0.36s0.09 0.23 0.17 0.32c0.08 0.1 0.18 0.17 0.3 0.21l5.4 2.03-1.38 6.87c-0.03 0.16 0 0.33 0.06 0.48 0.08 0.14 0.2 0.26 0.34 0.34 0.14 0.07 0.3 0.1 0.47 0.07 0.16-0.03 0.3-0.11 0.42-0.23l10.5-11.25c0.08-0.09 0.14-0.2 0.17-0.32 0.04-0.12 0.04-0.24 0.01-0.36Z" fill="#000000"></path></svg>