<svg xmlns="http://www.w3.org/2000/svg" viewBox="0 0 24 24" width="24" height="24"><path d="M13.03 2.6c1.04-1.18 2.85-1.08 3.9-0.03 1.05 1.05 1.15 2.86-0.02 3.9-0.9 0.8-2.15 1.17-3.13 1.35-0.5 0.09-0.93 0.13-1.25 0.16L12.15 8h-0.1-0.1-0.1l-0.38-0.02c-0.32-0.03-0.76-0.07-1.25-0.16-0.98-0.18-2.23-0.56-3.13-1.35-1.17-1.04-1.07-2.85-0.02-3.9 1.05-1.05 2.86-1.15 3.9 0.02l0.14 0.18c0.4 0.5 0.69 1.12 0.89 1.71 0.22-0.66 0.55-1.34 1.03-1.89Zm3.23 3.74c-0.16 0.12-0.33 0.22-0.5 0.3 0.23-0.11 0.46-0.25 0.66-0.42l-0.16 0.12Zm-4.52-0.92l-0.07-0.3 0.07 0.3Zm0.66-0.54c-0.06 0.18-0.1 0.36-0.14 0.54 0.04-0.17 0.08-0.35 0.14-0.54Zm4.46-1.6L16.74 3.1l0.13 0.18Z" fill="#FDDE09" fill-rule="evenodd"></path><path d="M19.5 12v6.75c0 0.2-0.08 0.39-0.22 0.53s-0.33 0.22-0.53 0.22H5.25c-0.2 0-0.39-0.08-0.53-0.22S4.5 18.95 4.5 18.75V12" fill="#F74C40"></path><path d="M19 18.52v-6.27L4.5 12v6.75c0 0.2 0.08 0.39 0.22 0.53s0.33 0.22 0.53 0.22h13.5c0.2 0 0.39-0.08 0.53-0.22s0.22-0.33 0.22-0.53L19 18.52Zm1 0.23c0 0.33-0.13 0.65-0.37 0.88C19.4 19.87 19.08 20 18.75 20H5.25c-0.33 0-0.65-0.13-0.88-0.37C4.13 19.4 4 19.08 4 18.75V12c0-0.28 0.22-0.5 0.5-0.5 0.18 0 0.34 0.1 0.43 0.25h14.14c0.09-0.15 0.25-0.25 0.43-0.25 0.28 0 0.5 0.22 0.5 0.5v6.75Z" fill="#F74C40"></path><path d="M4 12.5h16v2.24H4V12.5Z" fill="#ED2B1D"></path><path d="M20.25 7.5H3.75C3.34 7.5 3 7.84 3 8.25v3C3 11.66 3.34 12 3.75 12h16.5c0.41 0 0.75-0.34 0.75-0.75v-3c0-0.41-0.34-0.75-0.75-0.75Z" fill="#F74C40"></path><path d="M2.5 11.25v-3C2.5 7.56 3.06 7 3.75 7v0.5C3.34 7.5 3 7.84 3 8.25v3C3 11.66 3.34 12 3.75 12h16.5c0.41 0 0.75-0.34 0.75-0.75v-3c0-0.41-0.34-0.75-0.75-0.75V7c0.69 0 1.25 0.56 1.25 1.25v3c0 0.69-0.56 1.25-1.25 1.25H3.75c-0.69 0-1.25-0.56-1.25-1.25ZM20.25 7v0.5H3.75V7h16.5Z" fill="#F74C40"></path><path d="M13.5 6.74V20h-3V6.74h3Z" fill="#FDDE09"></path></svg>