<svg xmlns="http://www.w3.org/2000/svg" width="17" height="21.499" viewBox="0 0 17 21.499" fill="none">
  <path d="M 7.826 21.247 C 7.766 21.203 7.679 21.139 7.57 21.056 C 7.353 20.89 7.047 20.647 6.68 20.336 C 5.95 19.715 4.974 18.813 3.995 17.687 C 2.063 15.465 0 12.235 0 8.5 C 0 6.246 0.896 4.084 2.49 2.49 C 4.084 0.896 6.246 0 8.5 0 C 10.754 0 12.916 0.896 14.51 2.49 C 16.104 4.084 17 6.246 17 8.5 C 17 12.235 14.937 15.465 13.005 17.687 C 12.026 18.813 11.05 19.715 10.32 20.336 C 9.953 20.647 9.647 20.89 9.43 21.056 C 9.321 21.139 9.234 21.203 9.174 21.247 C 8.72 21.579 8.292 21.587 7.826 21.247 Z" fill="currentColor" fill-rule="nonzero"></path>
  <path d="M 16 8.5 C 16 15.25 8.5 20.5 8.5 20.5 C 8.5 20.5 1 15.25 1 8.5 C 1 6.511 1.79 4.603 3.197 3.197 C 4.603 1.79 6.511 1 8.5 1 C 10.489 1 12.397 1.79 13.803 3.197 C 15.21 4.603 16 6.511 16 8.5 Z" fill="currentColor" fill-rule="nonzero"></path>
  <path d="M 11.684 9.818 L 11.684 10.363 L 5.541 10.363 L 5.541 9.818 L 11.684 9.818 Z" fill="currentColor" fill-rule="nonzero"></path>
  <path d="M 8.612 2.677 C 11.808 2.677 14.399 5.268 14.399 8.464 C 14.399 11.66 11.808 14.251 8.612 14.251 C 5.417 14.251 2.826 11.66 2.826 8.464 C 2.826 5.268 5.417 2.677 8.612 2.677 Z M 6.666 7.304 C 5.758 7.304 5.021 8.04 5.021 8.948 L 5.021 11.43 L 5.023 11.457 C 5.037 11.588 5.147 11.689 5.281 11.689 C 5.415 11.689 5.527 11.588 5.54 11.457 L 5.541 11.43 L 5.541 10.848 L 11.684 10.848 L 11.684 11.43 L 11.685 11.457 C 11.698 11.588 11.809 11.689 11.943 11.689 C 12.078 11.689 12.189 11.588 12.202 11.457 L 12.203 11.43 L 12.203 8.948 C 12.203 8.04 11.467 7.304 10.559 7.304 L 6.666 7.304 Z M 6.745 5.238 C 6.028 5.238 5.447 5.82 5.447 6.537 L 5.447 7.176 C 5.78 6.949 6.18 6.813 6.61 6.802 C 6.787 6.491 7.12 6.281 7.502 6.281 L 9.723 6.281 C 10.105 6.281 10.438 6.491 10.614 6.802 C 11.045 6.813 11.445 6.948 11.778 7.176 L 11.778 6.537 C 11.778 5.843 11.233 5.275 10.547 5.24 L 10.479 5.238 L 6.745 5.238 Z" fill="currentColor" fill-rule="evenodd"></path>
</svg>