<svg xmlns="http://www.w3.org/2000/svg" viewBox="0 0 24 24" width="24" height="24"><path d="M18.9 5.87c-4.4-1.9-9.4-1.9-13.8 0C4.8 6 4.73 6.39 4.96 6.63l5.4 5.85c0.89 0.96 2.41 0.96 3.3 0l5.4-5.85C19.28 6.39 19.2 6 18.9 5.87ZM4.5 4.49c4.78-2.07 10.2-2.07 14.98 0 0.92 0.4 1.35 1.4 1.13 2.29 0.06 0.12 0.08 0.26 0.06 0.41l-1.29 9.13c-0.12 0.85-0.48 1.77-1.29 2.41-0.38 0.3-0.85 0.61-1.42 0.9l1 1.97c0.18 0.37 0.03 0.82-0.34 1-0.38 0.19-0.83 0.04-1.01-0.33l-1-2-0.05-0.11c-0.9 0.26-1.99 0.43-3.28 0.43-1.3 0-2.38-0.17-3.28-0.43l-0.05 0.1-1 2c-0.18 0.38-0.63 0.53-1 0.34-0.38-0.18-0.53-0.63-0.34-1l0.99-1.98c-0.57-0.28-1.04-0.59-1.42-0.89-0.8-0.64-1.17-1.56-1.29-2.41l-1.3-9.13c-0.01-0.15 0-0.29 0.07-0.41-0.22-0.9 0.2-1.89 1.13-2.29ZM5.1 9l4.16 4.5c1.48 1.61 4.02 1.61 5.5 0L18.91 9l-1 7.12c-0.1 0.6-0.33 1.12-0.74 1.45-0.88 0.7-2.45 1.53-5.17 1.53-2.71 0-4.29-0.83-5.17-1.53-0.4-0.33-0.65-0.84-0.73-1.45L5.09 8.99Zm2.5 6.56c0.27-0.31 0.74-0.35 1.05-0.08l1.12 0.96c0.32 0.26 0.36 0.74 0.09 1.05-0.27 0.32-0.74 0.36-1.06 0.09L7.67 16.6c-0.31-0.27-0.35-0.74-0.08-1.06Zm8.82 0c0.27 0.32 0.23 0.8-0.08 1.06l-1.12 0.96c-0.32 0.27-0.79 0.23-1.06-0.09-0.27-0.31-0.23-0.79 0.09-1.05l1.12-0.96c0.31-0.27 0.78-0.23 1.05 0.08Z" fill="#000000" fill-rule="evenodd"></path></svg>