<svg xmlns="http://www.w3.org/2000/svg" viewBox="0 0 24 24" width="24" height="24"><path d="M12.16 4.64c-0.09-0.08-0.23-0.08-0.32 0l-7 6.13c-0.06 0.04-0.09 0.11-0.09 0.18v8.55c0 0.14 0.11 0.25 0.25 0.25h3.5c0.14 0 0.25-0.11 0.25-0.25v-4c0-0.97 0.78-1.75 1.75-1.75h3c0.97 0 1.75 0.78 1.75 1.75v4c0 0.14 0.11 0.25 0.25 0.25H19c0.14 0 0.25-0.11 0.25-0.25v-8.55c0-0.07-0.03-0.14-0.09-0.18l-7-6.13Zm-1.31-1.13c0.66-0.58 1.64-0.58 2.3 0l7 6.13c0.38 0.33 0.6 0.8 0.6 1.31v8.55c0 0.97-0.78 1.75-1.75 1.75h-3.5c-0.97 0-1.75-0.78-1.75-1.75v-4c0-0.14-0.11-0.25-0.25-0.25h-3c-0.14 0-0.25 0.11-0.25 0.25v4c0 0.97-0.78 1.75-1.75 1.75H5c-0.97 0-1.75-0.78-1.75-1.75v-8.55c0-0.5 0.22-0.98 0.6-1.31l7-6.13Z" fill="#000000" fill-rule="evenodd"></path></svg>