<svg xmlns="http://www.w3.org/2000/svg" viewBox="0 0 24 24" width="24" height="24"><path d="M12.07 3c1.28 0 2.56 0.24 3.75 0.72C17 4.21 18.09 4.92 19 5.83c0.92 0.9 1.64 1.98 2.14 3.17 0.5 1.19 0.75 2.46 0.75 3.75V18c0 0.6-0.24 1.17-0.66 1.6-0.42 0.41-1 0.65-1.6 0.65h-1.5c-0.59 0-1.16-0.24-1.58-0.66-0.43-0.42-0.66-1-0.66-1.59v-3.75c0-0.6 0.23-1.17 0.66-1.6 0.42-0.41 0.99-0.65 1.59-0.65h2.21c-0.07-0.83-0.28-1.65-0.6-2.42-0.42-1-1.03-1.92-1.8-2.69-0.77-0.76-1.7-1.37-2.7-1.78-1-0.41-2.09-0.62-3.18-0.61-1.1 0-2.18 0.2-3.18 0.61-1.01 0.41-1.93 1.02-2.7 1.78-0.77 0.77-1.39 1.68-1.8 2.69-0.33 0.77-0.53 1.59-0.6 2.42H6c0.6 0 1.17 0.24 1.6 0.66 0.41 0.42 0.65 1 0.65 1.59V18c0 0.6-0.24 1.17-0.66 1.6C7.17 20 6.6 20.24 6 20.24H4.5c-0.6 0-1.17-0.24-1.6-0.66-0.41-0.42-0.65-1-0.65-1.59v-5.25C2.25 11.46 2.5 10.19 3 9s1.22-2.26 2.13-3.17c0.92-0.9 2-1.62 3.19-2.1 1.19-0.5 2.46-0.74 3.75-0.73ZM3.75 13.5V18c0 0.2 0.08 0.39 0.22 0.53s0.33 0.22 0.53 0.22H6c0.2 0 0.39-0.08 0.53-0.22S6.75 18.2 6.75 18v-3.75c0-0.2-0.08-0.39-0.22-0.53S6.2 13.5 6 13.5H3.75Zm16.64 0h-2.25c-0.2 0-0.4 0.08-0.53 0.22-0.14 0.14-0.22 0.33-0.22 0.53V18c0 0.2 0.08 0.39 0.22 0.53s0.33 0.22 0.53 0.22h1.5c0.2 0 0.39-0.08 0.53-0.22s0.22-0.33 0.22-0.53v-4.5Z" fill="#000000" fill-rule="evenodd"></path></svg>