<svg xmlns="http://www.w3.org/2000/svg" viewBox="0 0 24 24" width="24" height="24"><path d="M17.62 8.65c2.63 0 4.75 2.12 4.75 4.75v1.76 0.02 5.39 0.07c-0.04 0.38-0.36 0.68-0.75 0.68s-0.7-0.3-0.75-0.68v-0.07-1.69H3.13v1.69 0.07c-0.04 0.38-0.36 0.68-0.75 0.68s-0.7-0.3-0.75-0.68v-0.07-7.17c0-2.63 2.13-4.75 4.75-4.75h11.24ZM3.12 15.9v1.57h17.75v-1.57H3.13Z" fill="#000000" fill-rule="evenodd"></path><path d="M17.59 2.69c1.98 0.1 3.55 1.74 3.55 3.74v1.85c-0.96-0.66-2.11-1.05-3.36-1.08-0.5-0.9-1.47-1.5-2.57-1.5H8.79c-1.1 0-2.06 0.6-2.57 1.5-1.25 0.03-2.4 0.42-3.36 1.08V6.43c0-2.07 1.68-3.75 3.75-3.75h10.78 0.2Z" fill="#000000"></path></svg>