<svg xmlns="http://www.w3.org/2000/svg" viewBox="0 0 24 24" width="24" height="24"><path d="M17.4 2.68c2.06 0 3.74 1.68 3.74 3.75v3.78c0.77 0.84 1.23 1.96 1.23 3.19v7.17c0 0.41-0.33 0.75-0.75 0.75-0.41 0-0.75-0.34-0.75-0.75v-1.68H3.13v1.68c0 0.41-0.34 0.75-0.75 0.75-0.42 0-0.75-0.34-0.75-0.75V13.4c0-1.23 0.46-2.35 1.23-3.19V6.43c0-2.07 1.68-3.75 3.75-3.75h10.78ZM3.12 17.48h17.74v-1.62H3.13v1.63Zm3.25-7.33c-1.8 0-3.25 1.45-3.25 3.25v1.06h17.74V13.4c0-1.74-1.36-3.16-3.08-3.25h-0.17-0.92-0.02-9.36H7.3 6.38ZM6.6 4.18c-1.25 0-2.25 1.01-2.25 2.25V9.1C4.8 8.88 5.3 8.74 5.83 8.68V8.66c0-1.64 1.33-2.96 2.96-2.96h6.42c1.63 0 2.96 1.32 2.96 2.96v0.02c0.52 0.06 1.02 0.2 1.47 0.42V6.43c0-1.24-1-2.25-2.25-2.25H6.61ZM8.79 7.2C8 7.2 7.34 7.84 7.33 8.65h9.34c0-0.8-0.66-1.45-1.46-1.45H8.79Z" fill="#000000" fill-rule="evenodd"></path></svg>