<svg xmlns="http://www.w3.org/2000/svg" viewBox="0 0 24 24" width="24" height="24"><path d="M12 2.25c-1.93 0-3.81 0.57-5.42 1.64C4.98 4.96 3.73 6.5 3 8.27 2.25 10.05 2.06 12 2.44 13.9c0.37 1.9 1.3 3.63 2.67 5 1.36 1.36 3.1 2.29 4.99 2.66 1.89 0.38 3.85 0.19 5.63-0.55 1.78-0.74 3.3-1.99 4.38-3.6 1.07-1.6 1.64-3.48 1.64-5.41 0-2.59-1.03-5.06-2.86-6.9-1.83-1.82-4.3-2.85-6.89-2.85Zm-0.19 4.5c0.23 0 0.44 0.07 0.63 0.19 0.18 0.12 0.33 0.3 0.41 0.5 0.09 0.21 0.11 0.44 0.07 0.65-0.05 0.22-0.15 0.42-0.31 0.58-0.16 0.16-0.36 0.26-0.58 0.3C11.81 9.03 11.6 9 11.38 8.92 11.18 8.83 11 8.7 10.88 8.5c-0.13-0.19-0.2-0.4-0.2-0.63 0-0.3 0.13-0.58 0.34-0.8 0.2-0.2 0.5-0.32 0.8-0.32Zm0.94 10.5H12c-0.2 0-0.39-0.08-0.53-0.22s-0.22-0.33-0.22-0.53V12c-0.2 0-0.39-0.08-0.53-0.22s-0.22-0.33-0.22-0.53 0.08-0.39 0.22-0.53 0.33-0.22 0.53-0.22H12c0.2 0 0.39 0.08 0.53 0.22s0.22 0.33 0.22 0.53v4.5c0.2 0 0.39 0.08 0.53 0.22s0.22 0.33 0.22 0.53-0.08 0.39-0.22 0.53-0.33 0.22-0.53 0.22Z" fill="#000000"></path></svg>