<svg xmlns="http://www.w3.org/2000/svg" viewBox="0 0 24 24" width="24" height="24"><path d="M12 3.75c-4.56 0-8.25 3.7-8.25 8.25 0 4.56 3.7 8.25 8.25 8.25 4.56 0 8.25-3.7 8.25-8.25 0-4.56-3.7-8.25-8.25-8.25ZM2.25 12c0-5.38 4.37-9.75 9.75-9.75s9.75 4.37 9.75 9.75-4.37 9.75-9.75 9.75S2.25 17.38 2.25 12Z" fill="#000000" fill-rule="evenodd"></path><path d="M10.5 11.25c0-0.41 0.34-0.75 0.75-0.75H12c0.41 0 0.75 0.34 0.75 0.75v4.5c0.41 0 0.75 0.34 0.75 0.75s-0.34 0.75-0.75 0.75H12c-0.41 0-0.75-0.34-0.75-0.75V12c-0.41 0-0.75-0.34-0.75-0.75Z" fill="#000000" fill-rule="evenodd"></path><path d="M11.81 9c0.62 0 1.13-0.5 1.13-1.13 0-0.62-0.5-1.12-1.13-1.12-0.62 0-1.12 0.5-1.12 1.13C10.69 8.5 11.19 9 11.8 9Z" fill="#000000"></path></svg>