<svg xmlns="http://www.w3.org/2000/svg" viewBox="0 0 24 24" width="24" height="24"><path d="M12 2c5.52 0 10 4.48 10 10s-4.48 10-10 10S2 17.52 2 12 6.48 2 12 2Z" fill="#FFB400" fill-rule="evenodd"></path><path d="M12 4.18c-0.13 0-0.25-0.12-0.25-0.26s0.12-0.25 0.26-0.25c0.3 0 0.58 0.01 0.87 0.04 0.14 0.02 0.25 0.14 0.23 0.28-0.01 0.14-0.14 0.24-0.28 0.23-0.27-0.03-0.55-0.04-0.82-0.04Zm1.8 0.2c-0.13-0.03-0.21-0.16-0.18-0.3 0.03-0.14 0.17-0.22 0.3-0.2 0.3 0.08 0.57 0.16 0.85 0.26 0.13 0.04 0.2 0.19 0.15 0.32-0.04 0.13-0.19 0.2-0.32 0.16-0.26-0.1-0.52-0.17-0.8-0.23ZM15.52 5C15.4 4.94 15.34 4.8 15.4 4.66c0.06-0.12 0.22-0.18 0.34-0.11 0.26 0.13 0.52 0.27 0.76 0.43 0.12 0.08 0.16 0.24 0.08 0.35-0.08 0.12-0.23 0.16-0.35 0.08-0.23-0.15-0.47-0.28-0.72-0.4Zm1.53 1c-0.1-0.08-0.12-0.24-0.03-0.35 0.09-0.1 0.25-0.12 0.36-0.03C17.59 5.8 17.8 6 18 6.22c0.1 0.1 0.1 0.26 0 0.36-0.1 0.1-0.27 0.1-0.37 0-0.19-0.2-0.39-0.4-0.6-0.57Zm1.24 1.31c-0.09-0.1-0.07-0.27 0.05-0.35C18.44 6.87 18.6 6.9 18.68 7c0.18 0.23 0.34 0.48 0.5 0.73 0.07 0.12 0.03 0.27-0.1 0.35-0.12 0.07-0.27 0.03-0.35-0.1-0.14-0.23-0.29-0.46-0.45-0.68Zm0.91 1.58c-0.05-0.13 0-0.28 0.14-0.34 0.12-0.05 0.28 0 0.33 0.14 0.12 0.26 0.22 0.54 0.3 0.82 0.05 0.13-0.02 0.28-0.16 0.32-0.13 0.04-0.28-0.03-0.32-0.17C19.4 9.4 19.3 9.14 19.2 8.9Zm0.53 1.75c-0.02-0.14 0.07-0.27 0.2-0.3 0.15-0.02 0.28 0.08 0.3 0.22 0.05 0.28 0.09 0.57 0.1 0.87 0.02 0.14-0.09 0.26-0.23 0.27-0.14 0-0.26-0.1-0.27-0.24-0.02-0.27-0.05-0.55-0.1-0.82Zm0.1 1.83c0.01-0.14 0.13-0.25 0.27-0.24 0.14 0.01 0.25 0.13 0.24 0.27-0.01 0.3-0.05 0.59-0.1 0.87-0.02 0.14-0.15 0.24-0.29 0.21-0.14-0.02-0.23-0.15-0.2-0.29 0.04-0.27 0.07-0.54 0.08-0.82Zm-0.31 1.79c0.04-0.14 0.18-0.21 0.31-0.17 0.14 0.04 0.21 0.18 0.17 0.32-0.08 0.28-0.18 0.55-0.3 0.82-0.05 0.13-0.2 0.2-0.33 0.14s-0.19-0.2-0.13-0.34c0.1-0.25 0.2-0.5 0.28-0.77Zm-0.73 1.66c0.07-0.12 0.23-0.16 0.35-0.1 0.12 0.08 0.17 0.23 0.1 0.36-0.15 0.25-0.31 0.5-0.49 0.73-0.08 0.11-0.24 0.14-0.35 0.06-0.12-0.09-0.14-0.25-0.06-0.36 0.16-0.22 0.32-0.45 0.45-0.69Zm-1.1 1.47c0.1-0.1 0.26-0.11 0.36-0.01 0.1 0.1 0.11 0.26 0.01 0.36-0.2 0.21-0.41 0.41-0.63 0.6-0.11 0.1-0.27 0.08-0.36-0.03-0.1-0.1-0.08-0.27 0.03-0.36l0.6-0.56Zm-1.37 1.15c0.12-0.08 0.27-0.05 0.35 0.07 0.08 0.12 0.05 0.28-0.07 0.35-0.25 0.16-0.5 0.31-0.76 0.45-0.12 0.06-0.28 0.01-0.34-0.11-0.07-0.13-0.02-0.28 0.1-0.35 0.25-0.12 0.49-0.26 0.72-0.41Zm-1.63 0.82c0.13-0.05 0.28 0.02 0.32 0.15 0.05 0.13-0.02 0.28-0.15 0.33-0.27 0.1-0.55 0.18-0.84 0.25-0.14 0.03-0.27-0.05-0.3-0.19-0.04-0.13 0.04-0.27 0.18-0.3 0.27-0.07 0.53-0.15 0.79-0.24Zm-1.79 0.41c0.14-0.01 0.27 0.09 0.28 0.23 0.02 0.14-0.08 0.27-0.22 0.28-0.3 0.03-0.58 0.05-0.88 0.05-0.14 0-0.26-0.1-0.26-0.25 0-0.14 0.12-0.26 0.26-0.26 0.27 0 0.55-0.02 0.82-0.05Zm-1.83 0c0.14 0.01 0.24 0.14 0.23 0.28-0.02 0.14-0.15 0.24-0.29 0.22-0.29-0.03-0.58-0.08-0.86-0.15-0.14-0.03-0.23-0.17-0.2-0.3 0.04-0.14 0.17-0.23 0.31-0.2 0.27 0.07 0.54 0.11 0.81 0.15ZM9.3 19.34c0.14 0.05 0.2 0.2 0.15 0.33-0.05 0.13-0.2 0.2-0.32 0.15-0.28-0.1-0.55-0.22-0.81-0.35-0.13-0.06-0.18-0.22-0.12-0.34C8.26 19 8.41 18.95 8.54 19c0.24 0.13 0.5 0.23 0.75 0.33Zm-1.61-0.82c0.12 0.08 0.15 0.24 0.07 0.35C7.67 19 7.51 19.02 7.4 18.94c-0.25-0.16-0.48-0.33-0.7-0.52-0.12-0.09-0.13-0.25-0.04-0.36 0.09-0.1 0.25-0.12 0.36-0.03 0.2 0.17 0.43 0.34 0.66 0.49Zm-1.4-1.19c0.1 0.1 0.09 0.26-0.02 0.36-0.1 0.1-0.26 0.1-0.36-0.01-0.2-0.22-0.38-0.44-0.56-0.67-0.08-0.12-0.06-0.28 0.05-0.36 0.11-0.09 0.27-0.06 0.36 0.05 0.16 0.22 0.34 0.43 0.53 0.63Zm-1.06-1.44c0.07 0.13 0.02 0.28-0.1 0.35-0.12 0.07-0.28 0.03-0.35-0.1-0.14-0.25-0.28-0.5-0.4-0.78-0.05-0.12 0-0.27 0.14-0.33 0.12-0.06 0.28 0 0.33 0.13 0.11 0.25 0.24 0.5 0.38 0.73ZM4.5 14.21c0.04 0.14-0.04 0.28-0.18 0.32-0.13 0.04-0.27-0.04-0.31-0.17-0.09-0.28-0.15-0.57-0.2-0.86-0.03-0.13 0.06-0.27 0.2-0.3 0.14-0.02 0.27 0.07 0.3 0.21 0.04 0.27 0.1 0.54 0.19 0.8Zm-0.31-1.8c0 0.13-0.1 0.25-0.24 0.26-0.15 0-0.27-0.1-0.27-0.24l-0.01-0.42v-0.46C3.7 11.4 3.82 11.3 3.96 11.3c0.14 0.01 0.25 0.13 0.24 0.27l-0.01 0.44v0.4Zm0.11-1.82c-0.02 0.14-0.15 0.23-0.3 0.2-0.13-0.02-0.22-0.15-0.2-0.3 0.05-0.28 0.12-0.56 0.2-0.84C4.04 9.5 4.2 9.43 4.32 9.47 4.46 9.51 4.53 9.65 4.5 9.8c-0.07 0.26-0.14 0.53-0.19 0.8Zm0.54-1.75C4.8 8.97 4.64 9.03 4.51 8.97c-0.13-0.05-0.2-0.2-0.13-0.33 0.11-0.27 0.25-0.53 0.4-0.79C4.83 7.73 5 7.7 5.11 7.76c0.12 0.07 0.16 0.23 0.1 0.35-0.14 0.24-0.27 0.48-0.38 0.73ZM5.76 7.3C5.67 7.39 5.5 7.42 5.4 7.34 5.3 7.25 5.27 7.09 5.35 6.98 5.53 6.75 5.72 6.52 5.92 6.3 6.02 6.2 6.18 6.2 6.28 6.3c0.1 0.1 0.1 0.25 0.01 0.36-0.19 0.2-0.36 0.4-0.53 0.63Zm1.26-1.32C6.9 6.07 6.75 6.05 6.66 5.94c-0.1-0.11-0.08-0.27 0.03-0.36 0.23-0.19 0.46-0.36 0.7-0.52C7.52 4.98 7.68 5 7.76 5.13 7.83 5.24 7.8 5.4 7.68 5.48 7.45 5.63 7.23 5.8 7.02 5.98ZM8.53 5C8.4 5.05 8.25 5 8.2 4.87 8.13 4.75 8.18 4.6 8.3 4.53 8.57 4.4 8.84 4.3 9.11 4.18 9.24 4.14 9.39 4.2 9.44 4.33c0.05 0.14-0.02 0.28-0.15 0.33C9.03 4.76 8.78 4.86 8.53 5Zm1.72-0.62c-0.13 0.04-0.27-0.05-0.3-0.19-0.03-0.14 0.05-0.27 0.19-0.3 0.28-0.07 0.57-0.12 0.87-0.15 0.14-0.02 0.26 0.08 0.28 0.22 0.02 0.14-0.08 0.27-0.22 0.28-0.28 0.04-0.55 0.08-0.82 0.14Z" fill="#FFFFFF" fill-rule="evenodd"></path><path d="M14.77 15.16l0.34-0.05v1.27l-0.07 0.02c-0.18 0.03-0.37 0.05-0.56 0.05l-0.3-0.01c-0.6-0.06-1.13-0.28-1.57-0.61-0.55-0.41-0.96-1-1.13-1.67l-0.04-0.18-0.13 0.14-0.45 0.5v1.83H9.6V7.51h1.25v5.13l2.5-2.67h1.74l-1.61 1.76s-0.37 0.4-0.66 0.85c-0.12 0.22-0.18 0.45-0.17 0.72 0 0.17 0.03 0.34 0.07 0.5 0.06 0.2 0.14 0.37 0.25 0.54 0.11 0.16 0.25 0.3 0.4 0.42 0.2 0.15 0.46 0.28 0.77 0.35l0.23 0.04c0.12 0.01 0.25 0.02 0.4 0Z" fill="#FFFFFF" fill-rule="evenodd"></path></svg>