<svg xmlns="http://www.w3.org/2000/svg" viewBox="0 0 24 24" width="24" height="24"><path d="M19.5 3.75c0.4 0 0.78 0.16 1.06 0.44S21 4.85 21 5.25v5.5c0 8.4-7.15 11.18-8.53 11.64-0.3 0.1-0.64 0.1-0.94 0C10.15 21.93 3 19.16 3 10.75v-5.5c0-0.4 0.16-0.78 0.44-1.06S4.1 3.75 4.5 3.75h15ZM9 6.21v10.73h1.5v-2.2l0.55-0.6 0.15-0.16 0.04 0.16c0.11 0.5 0.34 0.95 0.65 1.34L12 15.63l0.07 0.08 0.13 0.14 0.1 0.08v0.02l0.12 0.1 0.12 0.1c0.54 0.42 1.18 0.71 1.95 0.77l0.08 0.01h0.1l0.17 0.01c0.23 0 0.46-0.02 0.67-0.06l0.09-0.02v-1.52c-0.2 0.03-0.4 0.05-0.59 0.05-0.14 0-0.28 0-0.4-0.03-0.18-0.02-0.35-0.07-0.52-0.13-0.2-0.08-0.4-0.19-0.55-0.3-0.19-0.14-0.36-0.32-0.5-0.52-0.12-0.19-0.22-0.4-0.28-0.6-0.06-0.22-0.1-0.43-0.1-0.65 0-0.33 0.07-0.6 0.2-0.87 0.35-0.53 0.79-1 0.8-1l1.92-2.13h-2.08l-3 3.21V6.21H9Z" fill="#26BEC9"></path></svg>