<svg xmlns="http://www.w3.org/2000/svg" viewBox="0 0 24 24" width="24" height="24"><path d="M3 9c0-0.83 0.67-1.5 1.5-1.5h15C20.33 7.5 21 8.17 21 9v10.5c0 0.83-0.67 1.5-1.5 1.5h-15C3.67 21 3 20.33 3 19.5V9Zm16.5 0h-15v10.5h15V9Z" fill="#000000" fill-rule="evenodd"></path><path d="M12 2.25c-0.7 0-1.36 0.28-1.86 0.77-0.49 0.5-0.77 1.16-0.77 1.85v3.38C9.38 8.66 9.04 9 8.63 9 8.2 9 7.87 8.66 7.87 8.25V4.87c0-1.09 0.44-2.14 1.21-2.91 0.78-0.78 1.83-1.21 2.92-1.21 1.1 0 2.14 0.43 2.92 1.2 0.77 0.78 1.2 1.83 1.2 2.92v3.38C16.13 8.66 15.8 9 15.38 9c-0.4 0-0.74-0.34-0.74-0.75V4.87c0-0.7-0.28-1.36-0.77-1.85-0.5-0.5-1.16-0.77-1.86-0.77Z" fill="#000000" fill-rule="evenodd"></path><path d="M12 15.38c0.62 0 1.13-0.5 1.13-1.13 0-0.62-0.5-1.13-1.13-1.13-0.62 0-1.13 0.5-1.13 1.13 0 0.62 0.5 1.13 1.13 1.13Z" fill="#000000"></path></svg>