<svg xmlns="http://www.w3.org/2000/svg" viewBox="0 0 24 24" width="24" height="24"><path d="M16.5 9c0.28 0 0.54 0.16 0.67 0.41l5.25 10.5c0.19 0.38 0.04 0.83-0.33 1.01-0.38 0.19-0.83 0.04-1.01-0.33l-4.58-9.16-4.58 9.16c-0.18 0.37-0.63 0.52-1 0.33-0.38-0.18-0.53-0.63-0.34-1l5.25-10.5C15.96 9.15 16.22 9 16.5 9Z" fill="#000000" fill-rule="evenodd"></path><path d="M12 17.25c0-0.41 0.34-0.75 0.75-0.75h7.5c0.41 0 0.75 0.34 0.75 0.75S20.66 18 20.25 18h-7.5C12.34 18 12 17.66 12 17.25Z" fill="#000000" fill-rule="evenodd"></path><path d="M8.25 2.25C8.66 2.25 9 2.59 9 3v2.25C9 5.66 8.66 6 8.25 6S7.5 5.66 7.5 5.25V3c0-0.41 0.34-0.75 0.75-0.75Z" fill="#000000" fill-rule="evenodd"></path><path d="M1.5 5.25c0-0.41 0.34-0.75 0.75-0.75h12C14.66 4.5 15 4.84 15 5.25S14.66 6 14.25 6h-12C1.84 6 1.5 5.66 1.5 5.25Z" fill="#000000" fill-rule="evenodd"></path><path d="M11.25 4.5C11.66 4.5 12 4.84 12 5.25c0 2.59-1.03 5.07-2.86 6.9C7.32 13.96 4.84 15 2.25 15c-0.41 0-0.75-0.34-0.75-0.75s0.34-0.75 0.75-0.75c2.19 0 4.29-0.87 5.83-2.42 1.55-1.54 2.42-3.64 2.42-5.83 0-0.41 0.34-0.75 0.75-0.75Z" fill="#000000" fill-rule="evenodd"></path><path d="M5.51 7.54C5.91 7.4 6.33 7.61 6.47 8c0.57 1.6 1.62 3 3.02 3.98 1.39 0.99 3.05 1.52 4.76 1.52 0.41 0 0.75 0.33 0.75 0.75 0 0.41-0.34 0.75-0.75 0.75-2.02 0-3.98-0.63-5.63-1.8-1.65-1.15-2.9-2.8-3.56-4.7C4.92 8.11 5.12 7.68 5.5 7.54Z" fill="#000000" fill-rule="evenodd"></path></svg>