<svg xmlns="http://www.w3.org/2000/svg" width="17" height="21.499" viewBox="0 0 17 21.499" fill="none">
  <path d="M 7.826 21.247 C 7.766 21.203 7.679 21.139 7.57 21.056 C 7.353 20.89 7.047 20.647 6.68 20.336 C 5.95 19.715 4.974 18.813 3.995 17.687 C 2.063 15.465 0 12.235 0 8.5 C 0 6.246 0.896 4.084 2.49 2.49 C 4.084 0.896 6.246 0 8.5 0 C 10.754 0 12.916 0.896 14.51 2.49 C 16.104 4.084 17 6.246 17 8.5 C 17 12.235 14.937 15.465 13.005 17.687 C 12.026 18.813 11.05 19.715 10.32 20.336 C 9.953 20.647 9.647 20.89 9.43 21.056 C 9.321 21.139 9.234 21.203 9.174 21.247 C 8.72 21.579 8.292 21.587 7.826 21.247 Z" fill="currentColor" fill-rule="nonzero"></path>
  <path d="M 16 8.5 C 16 15.25 8.5 20.5 8.5 20.5 C 8.5 20.5 1 15.25 1 8.5 C 1 6.511 1.79 4.603 3.197 3.197 C 4.603 1.79 6.511 1 8.5 1 C 10.489 1 12.397 1.79 13.803 3.197 C 15.21 4.603 16 6.511 16 8.5 Z" fill="currentColor" fill-rule="nonzero"></path>
  <path d="M 8.5 11.5 C 10.157 11.5 11.5 10.157 11.5 8.5 C 11.5 6.843 10.157 5.5 8.5 5.5 C 6.843 5.5 5.5 6.843 5.5 8.5 C 5.5 10.157 6.843 11.5 8.5 11.5 Z" fill="currentColor" fill-rule="nonzero"></path>
</svg>