<svg xmlns="http://www.w3.org/2000/svg" viewBox="0 0 24 24" width="24" height="24"><path d="M12 7.5c-1.24 0-2.25 1-2.25 2.25 0 1.24 1 2.25 2.25 2.25 1.24 0 2.25-1 2.25-2.25 0-1.24-1-2.25-2.25-2.25ZM8.25 9.75C8.25 7.68 9.93 6 12 6c2.07 0 3.75 1.68 3.75 3.75 0 2.07-1.68 3.75-3.75 3.75-2.07 0-3.75-1.68-3.75-3.75Z" fill="#000000" fill-rule="evenodd"></path><path d="M12 3c-1.79 0-3.5 0.71-4.77 1.98-1.27 1.26-1.98 2.98-1.98 4.77 0 3.1 1.73 5.93 3.57 8.04 0.9 1.04 1.81 1.88 2.5 2.46 0.26 0.23 0.5 0.42 0.68 0.56l0.69-0.56c0.68-0.58 1.59-1.42 2.5-2.46 1.83-2.1 3.56-4.93 3.56-8.04 0-1.79-0.71-3.5-1.98-4.77C15.51 3.7 13.8 3 12 3Zm0 18.75l-0.43 0.61-0.03-0.02-0.07-0.04-0.25-0.2c-0.21-0.16-0.52-0.4-0.88-0.7-0.72-0.62-1.69-1.51-2.66-2.63-1.91-2.2-3.93-5.38-3.93-9.02 0-2.19 0.87-4.29 2.42-5.83C7.7 2.37 9.8 1.5 12 1.5s4.29 0.87 5.83 2.42c1.55 1.54 2.42 3.64 2.42 5.83 0 3.64-2.02 6.82-3.93 9.02-0.97 1.12-1.94 2.01-2.66 2.63-0.36 0.3-0.67 0.54-0.88 0.7l-0.25 0.2-0.07 0.04-0.02 0.02L12 21.75Zm0 0l0.43 0.61c-0.26 0.19-0.6 0.18-0.86 0L12 21.75Z" fill="#000000" fill-rule="evenodd"></path></svg>