<svg xmlns="http://www.w3.org/2000/svg" viewBox="0 0 24 24" width="24" height="24"><path d="M12 1.5c-2.19 0-4.28 0.87-5.83 2.42-1.55 1.55-2.42 3.64-2.42 5.83 0 7.06 7.5 12.4 7.82 12.61 0.13 0.1 0.28 0.14 0.43 0.14 0.15 0 0.3-0.05 0.43-0.14 0.32-0.22 7.82-5.55 7.82-12.61 0-2.19-0.87-4.28-2.42-5.83C16.28 2.37 14.19 1.5 12 1.5Zm0 5.25c0.6 0 1.17 0.18 1.67 0.5 0.49 0.34 0.87 0.8 1.1 1.35 0.23 0.55 0.29 1.15 0.17 1.74-0.11 0.58-0.4 1.11-0.82 1.53-0.42 0.42-0.95 0.7-1.53 0.82-0.59 0.12-1.19 0.06-1.74-0.17s-1.01-0.61-1.34-1.1C9.18 10.92 9 10.34 9 9.75c0-0.4 0.08-0.78 0.23-1.15 0.15-0.36 0.37-0.7 0.65-0.97 0.28-0.28 0.6-0.5 0.97-0.65 0.37-0.15 0.76-0.23 1.15-0.23Z" fill="#000000"></path></svg>