<svg xmlns="http://www.w3.org/2000/svg" viewBox="0 0 24 24" width="24" height="24"><path d="M9 4.84C8.94 4.8 8.88 4.8 8.82 4.82L3.94 6.04C3.83 6.07 3.75 6.17 3.75 6.28v10.94c0 0.16 0.15 0.28 0.31 0.24l4.4-1.1c0.4-0.1 0.83-0.05 1.2 0.13L15 19.16c0.06 0.03 0.12 0.04 0.18 0.02l4.88-1.22c0.11-0.03 0.19-0.13 0.19-0.24V6.78c0-0.16-0.15-0.28-0.31-0.24l-4.4 1.1c-0.4 0.1-0.83 0.05-1.2-0.13L9 4.84ZM8.46 3.36c0.4-0.1 0.83-0.05 1.2 0.13L15 6.16c0.06 0.03 0.12 0.04 0.18 0.02l4.4-1.1c1.1-0.27 2.17 0.56 2.17 1.7v10.94c0 0.8-0.55 1.5-1.33 1.7l-4.88 1.22c-0.4 0.1-0.83 0.05-1.2-0.13L9 17.84c-0.06-0.03-0.12-0.04-0.18-0.02l-4.4 1.1c-1.1 0.27-2.17-0.56-2.17-1.7V6.28c0-0.8 0.55-1.5 1.33-1.7l4.88-1.22Z" fill="#000000" fill-rule="evenodd"></path><path d="M9 3.75c0.41 0 0.75 0.34 0.75 0.75V17c0 0.41-0.34 0.75-0.75 0.75S8.25 17.41 8.25 17V4.5c0-0.41 0.34-0.75 0.75-0.75Z" fill="#000000" fill-rule="evenodd"></path><path d="M15 6.25c0.41 0 0.75 0.34 0.75 0.75v12.5c0 0.41-0.34 0.75-0.75 0.75s-0.75-0.34-0.75-0.75V7c0-0.41 0.34-0.75 0.75-0.75Z" fill="#000000" fill-rule="evenodd"></path></svg>