<svg xmlns="http://www.w3.org/2000/svg" viewBox="0 0 24 24" width="24" height="24"><path d="M11.37 3.01c0.16 0.27 0.15 0.6-0.04 0.85-2.09 2.79-2.28 6.42 0.17 8.58 1.63 1.44 3.2 1.98 4.64 1.98 1.45 0 2.84-0.55 4.08-1.42 0.25-0.18 0.58-0.19 0.84-0.02s0.39 0.48 0.32 0.78c-0.32 1.51-1.02 2.97-2.12 4.2-3.4 3.86-9.27 4.23-13.12 0.83C2.29 15.4 1.92 9.52 5.3 5.67c1.43-1.63 3.3-2.63 5.28-3 0.3-0.05 0.62 0.08 0.78 0.34Zm-2.29 1.7C8.1 5.14 7.2 5.8 6.44 6.65c-2.85 3.23-2.54 8.16 0.7 11 3.22 2.86 8.15 2.55 11-0.69 0.48-0.54 0.86-1.12 1.16-1.74-0.98 0.43-2.04 0.69-3.16 0.69-1.85 0-3.77-0.71-5.64-2.36-2.67-2.36-2.8-5.9-1.42-8.86Z" fill="#000000" fill-rule="evenodd"></path></svg>