<svg xmlns="http://www.w3.org/2000/svg" viewBox="0 0 24 24" width="24" height="24"><path d="M9 4.84C8.96 4.81 8.9 4.81 8.84 4.82l-4.4 1.2c-0.1 0.03-0.18 0.13-0.18 0.24V17.2c0 0.17 0.16 0.29 0.32 0.24l3.86-1.05c0.42-0.12 0.86-0.07 1.25 0.12l5.31 2.66c0.06 0.03 0.12 0.03 0.18 0.02l4.4-1.2c0.1-0.03 0.18-0.13 0.18-0.24V7.2c0-0.16-0.14-0.28-0.3-0.25l-3.99 0.73c-0.37 0.07-0.75 0.01-1.1-0.16L9.02 4.84ZM8.44 3.38C8.85 3.26 9.3 3.3 9.68 3.5l5.36 2.68c0.05 0.02 0.1 0.03 0.15 0.02l4-0.72c1.07-0.2 2.06 0.63 2.06 1.72v10.54c0 0.79-0.53 1.48-1.29 1.68l-4.4 1.2c-0.41 0.12-0.85 0.07-1.24-0.12l-5.31-2.66c-0.06-0.03-0.12-0.03-0.18-0.02l-3.87 1.06c-1.11 0.3-2.21-0.54-2.21-1.69V6.26c0-0.79 0.53-1.48 1.29-1.68l4.4-1.2Z" fill="#000000" fill-rule="evenodd"></path><path d="M9 3.75c0.41 0 0.75 0.34 0.75 0.75V17c0 0.41-0.34 0.75-0.75 0.75S8.25 17.41 8.25 17V4.5c0-0.41 0.34-0.75 0.75-0.75Z" fill="#000000" fill-rule="evenodd"></path><path d="M15 6.25c0.41 0 0.75 0.34 0.75 0.75v12.5c0 0.41-0.34 0.75-0.75 0.75s-0.75-0.34-0.75-0.75V7c0-0.41 0.34-0.75 0.75-0.75Z" fill="#000000" fill-rule="evenodd"></path><path d="M7.29 4.33L3.74 5.3C3.3 5.42 3 5.8 3 6.26v10.56c0 0.62 0.55 1.09 1.16 0.99l3.97-0.67c0.5-0.08 0.86-0.52 0.84-1.02L8.55 5.26C8.52 4.6 7.9 4.16 7.29 4.33Z" fill="#000000"></path><path d="M20.5 6l-5 1L15 19.5l6-1.5-0.5-12Z" fill="#000000"></path></svg>