<svg xmlns="http://www.w3.org/2000/svg" viewBox="0 0 24 24" width="24" height="24"><path d="M2.25 7.5c0-1.52 1.23-2.75 2.75-2.75h14c1.52 0 2.75 1.23 2.75 2.75v9c0 1.52-1.23 2.75-2.75 2.75H5c-1.52 0-2.75-1.23-2.75-2.75v-9ZM5 6.25c-0.69 0-1.25 0.56-1.25 1.25v9c0 0.69 0.56 1.25 1.25 1.25h14c0.69 0 1.25-0.56 1.25-1.25v-9c0-0.69-0.56-1.25-1.25-1.25H5Z" fill="#000000" fill-rule="evenodd"></path><path d="M3.45 5.49c0.29-0.3 0.76-0.32 1.06-0.04l7.32 6.86c0.1 0.1 0.24 0.1 0.34 0l7.32-6.86c0.3-0.28 0.77-0.27 1.06 0.04 0.28 0.3 0.27 0.77-0.04 1.06L13.2 13.4c-0.68 0.63-1.72 0.63-2.4 0L3.5 6.55c-0.3-0.29-0.32-0.76-0.04-1.06Z" fill="#000000" fill-rule="evenodd"></path></svg>