<svg xmlns="http://www.w3.org/2000/svg" viewBox="0 0 24 24" width="24" height="24"><path d="M7.5 6c0-0.41 0.34-0.75 0.75-0.75h12C20.66 5.25 21 5.59 21 6s-0.34 0.75-0.75 0.75h-12C7.84 6.75 7.5 6.41 7.5 6Z" fill="#000000" fill-rule="evenodd"></path><path d="M7.5 12c0-0.41 0.34-0.75 0.75-0.75h12c0.41 0 0.75 0.34 0.75 0.75s-0.34 0.75-0.75 0.75h-12c-0.41 0-0.75-0.34-0.75-0.75Z" fill="#000000" fill-rule="evenodd"></path><path d="M7.5 18c0-0.41 0.34-0.75 0.75-0.75h12c0.41 0 0.75 0.34 0.75 0.75s-0.34 0.75-0.75 0.75h-12c-0.41 0-0.75-0.34-0.75-0.75Z" fill="#000000" fill-rule="evenodd"></path><path d="M4.13 7.13c0.62 0 1.12-0.5 1.12-1.13 0-0.62-0.5-1.13-1.13-1.13C3.5 4.88 3 5.38 3 6c0 0.62 0.5 1.13 1.13 1.13Z" fill="#000000"></path><path d="M4.13 13.13c0.62 0 1.12-0.5 1.12-1.13 0-0.62-0.5-1.13-1.13-1.13C3.5 10.88 3 11.38 3 12c0 0.62 0.5 1.13 1.13 1.13Z" fill="#000000"></path><path d="M4.13 19.13c0.62 0 1.12-0.5 1.12-1.13 0-0.62-0.5-1.13-1.13-1.13C3.5 16.88 3 17.38 3 18c0 0.62 0.5 1.13 1.13 1.13Z" fill="#000000"></path></svg>