<svg xmlns="http://www.w3.org/2000/svg" viewBox="0 0 24 24" width="24" height="24"><path d="M16.5 21c-1.77 0-3.53-0.35-5.17-1.03-1.64-0.68-3.13-1.67-4.38-2.93C5.7 15.8 4.7 14.3 4.02 12.66 3.35 11.02 3 9.26 3 7.5 3 6.22 3.47 5 4.31 4.02 5.16 3.06 6.32 2.45 7.6 2.28c0.32-0.03 0.65 0.03 0.93 0.2 0.28 0.16 0.5 0.4 0.63 0.7l1.88 4.4c0.1 0.22 0.14 0.47 0.12 0.72-0.03 0.25-0.1 0.49-0.24 0.7l-1.56 2.37c0.7 1.44 1.87 2.6 3.31 3.3L15 13.08c0.2-0.13 0.45-0.21 0.7-0.24 0.24-0.02 0.5 0.02 0.72 0.11l4.39 1.88c0.3 0.13 0.55 0.36 0.71 0.63 0.16 0.29 0.23 0.61 0.19 0.93-0.16 1.27-0.78 2.44-1.74 3.28-0.96 0.85-2.2 1.31-3.47 1.31ZM7.77 3.76C6.87 3.9 6.04 4.34 5.44 5.02 4.84 5.7 4.5 6.58 4.5 7.49c0 3.19 1.26 6.24 3.51 8.49 2.26 2.25 5.3 3.51 8.49 3.51 0.91 0 1.8-0.33 2.48-0.94 0.68-0.6 1.12-1.43 1.24-2.34l-4.39-1.87-2.35 1.56c-0.21 0.15-0.46 0.23-0.72 0.25-0.26 0.02-0.52-0.02-0.75-0.14-1.74-0.84-3.15-2.25-4-4-0.11-0.23-0.16-0.5-0.14-0.76 0.02-0.25 0.1-0.5 0.24-0.7l1.54-2.42-1.88-4.36Z" fill="#000000"></path></svg>