<svg xmlns="http://www.w3.org/2000/svg" viewBox="0 0 24 24" width="24" height="24"><path d="M21.74 19.87c-1.4-2.4-3.64-4.21-6.29-5.07 1.27-0.76 2.26-1.91 2.81-3.28 0.55-1.37 0.64-2.89 0.25-4.31-0.4-1.43-1.24-2.69-2.42-3.58-1.17-0.9-2.61-1.38-4.09-1.38S9.08 2.73 7.9 3.63C6.74 4.53 5.89 5.78 5.5 7.2c-0.4 1.42-0.31 2.94 0.24 4.3 0.55 1.38 1.54 2.53 2.8 3.29-2.64 0.86-4.88 2.66-6.28 5.07-0.07 0.12-0.1 0.25-0.1 0.38s0.03 0.26 0.1 0.37c0.06 0.12 0.16 0.21 0.27 0.28 0.11 0.06 0.24 0.1 0.38 0.1h18.18c0.14 0 0.27-0.04 0.38-0.1 0.11-0.07 0.2-0.16 0.27-0.28 0.07-0.11 0.1-0.24 0.1-0.37s-0.03-0.26-0.1-0.38Z" fill="#000000"></path></svg>