<svg xmlns="http://www.w3.org/2000/svg" viewBox="0 0 24 24" width="24" height="24"><path d="M15.46 14.8c1.97-1.18 3.29-3.34 3.29-5.8 0-3.73-3.02-6.75-6.75-6.75S5.25 5.27 5.25 9c0 2.46 1.32 4.62 3.29 5.8-0.75 0.24-1.48 0.56-2.17 0.96-1.7 0.98-3.13 2.4-4.11 4.11-0.21 0.36-0.09 0.82 0.27 1.03 0.36 0.2 0.82 0.08 1.02-0.28 0.86-1.48 2.1-2.7 3.57-3.56 1.49-0.86 3.17-1.31 4.88-1.31s3.4 0.45 4.88 1.3c1.48 0.86 2.7 2.1 3.57 3.57 0.2 0.36 0.66 0.49 1.02 0.28 0.36-0.2 0.48-0.67 0.27-1.03-0.98-1.7-2.4-3.13-4.11-4.11-0.7-0.4-1.42-0.72-2.17-0.96ZM6.75 9c0-2.9 2.35-5.25 5.25-5.25S17.25 6.1 17.25 9 14.9 14.25 12 14.25 6.75 11.9 6.75 9Z" fill="#000000" fill-rule="evenodd"></path></svg>