<svg xmlns="http://www.w3.org/2000/svg" viewBox="0 0 24 24" width="24" height="24"><path d="M21.02 4.1c0.41 0 0.75 0.33 0.75 0.75v4.5c0 0.41-0.34 0.75-0.75 0.75h-4.5c-0.42 0-0.75-0.34-0.75-0.75 0-0.42 0.33-0.75 0.75-0.75h3.75V4.85c0-0.42 0.33-0.75 0.75-0.75Z" fill="#000000" fill-rule="evenodd"></path><path d="M13.46 4.64C12.01 4.35 10.5 4.5 9.13 5.07 7.76 5.64 6.59 6.6 5.76 7.83 4.94 9.07 4.5 10.52 4.5 12s0.44 2.93 1.26 4.17c0.83 1.23 2 2.2 3.37 2.76 1.37 0.57 2.88 0.72 4.33 0.43 1.46-0.3 2.8-1 3.84-2.06 0.3-0.29 0.77-0.29 1.06 0 0.3 0.3 0.3 0.77 0 1.06-1.25 1.26-2.86 2.12-4.6 2.47C12 21.17 10.2 21 8.56 20.3 6.9 19.63 5.5 18.48 4.52 17 3.52 15.52 3 13.78 3 12c0-1.78 0.53-3.52 1.52-5s2.4-2.63 4.04-3.31C10.2 3 12 2.83 13.76 3.17c1.74 0.35 3.35 1.2 4.6 2.47l3.19 3.18c0.29 0.3 0.29 0.77 0 1.06-0.3 0.3-0.77 0.3-1.06 0L17.3 6.7c-1.05-1.05-2.38-1.77-3.84-2.06Z" fill="#000000" fill-rule="evenodd"></path></svg>