<svg xmlns="http://www.w3.org/2000/svg" viewBox="0 0 24 24" width="24" height="24"><path d="M6 9.75c-1.24 0-2.25 1-2.25 2.25 0 1.24 1 2.25 2.25 2.25 1.24 0 2.25-1 2.25-2.25 0-1.24-1-2.25-2.25-2.25ZM2.25 12c0-2.07 1.68-3.75 3.75-3.75 2.07 0 3.75 1.68 3.75 3.75 0 2.07-1.68 3.75-3.75 3.75-2.07 0-3.75-1.68-3.75-3.75Z" fill="#000000" fill-rule="evenodd"></path><path d="M16.5 16.5c-1.24 0-2.25 1-2.25 2.25 0 1.24 1 2.25 2.25 2.25 1.24 0 2.25-1 2.25-2.25 0-1.24-1-2.25-2.25-2.25Zm-3.75 2.25c0-2.07 1.68-3.75 3.75-3.75 2.07 0 3.75 1.68 3.75 3.75 0 2.07-1.68 3.75-3.75 3.75-2.07 0-3.75-1.68-3.75-3.75Z" fill="#000000" fill-rule="evenodd"></path><path d="M16.5 3c-1.24 0-2.25 1-2.25 2.25 0 1.24 1 2.25 2.25 2.25 1.24 0 2.25-1 2.25-2.25 0-1.24-1-2.25-2.25-2.25Zm-3.75 2.25c0-2.07 1.68-3.75 3.75-3.75 2.07 0 3.75 1.68 3.75 3.75C20.25 7.32 18.57 9 16.5 9c-2.07 0-3.75-1.68-3.75-3.75Z" fill="#000000" fill-rule="evenodd"></path><path d="M14.6 6.47c0.23 0.35 0.13 0.8-0.22 1.03L8.93 11c-0.35 0.23-0.81 0.13-1.04-0.22-0.22-0.34-0.12-0.8 0.23-1.03l5.45-3.5c0.35-0.23 0.81-0.13 1.04 0.22Z" fill="#000000" fill-rule="evenodd"></path><path d="M7.9 13.22c0.22-0.35 0.68-0.45 1.03-0.23l5.45 3.5c0.35 0.23 0.45 0.7 0.23 1.04-0.23 0.35-0.7 0.45-1.04 0.23l-5.45-3.5c-0.35-0.23-0.45-0.7-0.23-1.04Z" fill="#000000" fill-rule="evenodd"></path></svg>