<svg xmlns="http://www.w3.org/2000/svg" viewBox="0 0 24 24" width="24" height="24"><path d="M12 8.25c-2.07 0-3.75 1.68-3.75 3.75 0 2.07 1.68 3.75 3.75 3.75 2.07 0 3.75-1.68 3.75-3.75 0-2.07-1.68-3.75-3.75-3.75ZM6.75 12c0-2.9 2.35-5.25 5.25-5.25S17.25 9.1 17.25 12 14.9 17.25 12 17.25 6.75 14.9 6.75 12Z" fill="#000000" fill-rule="evenodd"></path><path d="M8.8 2C9 1.93 9.21 1.96 9.4 2.07l2.2 1.31h0.8l2.19-1.3c0.18-0.12 0.4-0.14 0.61-0.08 1.43 0.46 2.75 1.21 3.86 2.22 0.16 0.15 0.25 0.35 0.24 0.57l-0.04 2.55c0.15 0.23 0.28 0.46 0.4 0.7l2.23 1.24c0.2 0.1 0.33 0.28 0.37 0.5 0.32 1.46 0.32 2.98 0 4.44-0.04 0.21-0.18 0.4-0.36 0.5l-2.23 1.24-0.4 0.7 0.03 2.55c0 0.21-0.08 0.42-0.24 0.56-1.11 1.01-2.42 1.77-3.85 2.23-0.2 0.07-0.43 0.04-0.62-0.07l-2.19-1.31h-0.8l-2.19 1.3C9.23 22.05 9.01 22.08 8.8 22c-1.43-0.46-2.75-1.21-3.86-2.22-0.16-0.15-0.25-0.35-0.24-0.57l0.04-2.55c-0.15-0.23-0.28-0.46-0.4-0.7L2.1 14.72c-0.2-0.1-0.33-0.28-0.37-0.5-0.32-1.46-0.32-2.98 0-4.44 0.04-0.21 0.18-0.4 0.36-0.5l2.24-1.24c0.12-0.24 0.25-0.47 0.4-0.7L4.7 4.8c0-0.21 0.08-0.42 0.24-0.56C6.05 3.22 7.36 2.46 8.8 2ZM6.2 5.12l0.04 2.43c0 0.16-0.04 0.3-0.13 0.44-0.2 0.29-0.38 0.6-0.53 0.92C5.5 9.05 5.4 9.17 5.27 9.24l-2.13 1.18c-0.19 1.05-0.19 2.12 0 3.16l2.13 1.18c0.13 0.08 0.24 0.2 0.31 0.33 0.15 0.32 0.33 0.63 0.53 0.93 0.09 0.13 0.14 0.28 0.13 0.43L6.2 18.9c0.81 0.68 1.74 1.21 2.74 1.57l2.08-1.25c0.14-0.08 0.3-0.12 0.45-0.1 0.35 0.02 0.71 0.02 1.07 0 0.15-0.01 0.3 0.02 0.44 0.1l2.09 1.25c1-0.36 1.92-0.9 2.73-1.58l-0.04-2.43c0-0.16 0.04-0.3 0.13-0.44 0.2-0.29 0.38-0.6 0.53-0.92 0.07-0.14 0.18-0.25 0.31-0.33l2.13-1.18c0.19-1.05 0.19-2.12 0-3.16l-2.13-1.18c-0.13-0.08-0.24-0.2-0.31-0.33-0.15-0.32-0.33-0.63-0.53-0.93-0.09-0.12-0.14-0.28-0.13-0.43L17.8 5.1c-0.81-0.68-1.74-1.21-2.74-1.57l-2.08 1.25c-0.14 0.08-0.3 0.12-0.45 0.1-0.35-0.02-0.71-0.02-1.07 0-0.15 0.02-0.3-0.02-0.44-0.1L8.93 3.54c-1 0.36-1.92 0.9-2.73 1.58Z" fill="#000000" fill-rule="evenodd"></path></svg>