<svg xmlns="http://www.w3.org/2000/svg" viewBox="0 0 24 24" width="24" height="24"><path d="M7.5 21.75c0.83 0 1.5-0.67 1.5-1.5s-0.67-1.5-1.5-1.5S6 19.42 6 20.25s0.67 1.5 1.5 1.5Z" fill="#000000"></path><path d="M17.25 21.75c0.83 0 1.5-0.67 1.5-1.5s-0.67-1.5-1.5-1.5-1.5 0.67-1.5 1.5 0.67 1.5 1.5 1.5Z" fill="#000000"></path><path d="M0 3c0-0.41 0.34-0.75 0.75-0.75h1.58c0.32 0 0.64 0.1 0.9 0.3 0.26 0.2 0.45 0.47 0.54 0.79L4.53 6h16.26c0.23 0 0.45 0.11 0.6 0.3 0.14 0.19 0.18 0.43 0.12 0.66l-2.48 8.66c-0.13 0.47-0.42 0.88-0.8 1.18-0.4 0.3-0.87 0.45-1.36 0.45H7.88c-0.49 0-0.96-0.16-1.35-0.45-0.4-0.3-0.68-0.71-0.81-1.18L3.25 6.97 3.24 6.94 2.33 3.75H0.75C0.34 3.75 0 3.41 0 3Zm4.96 4.5l2.2 7.7c0.05 0.16 0.14 0.3 0.27 0.4 0.13 0.1 0.29 0.15 0.45 0.15h8.99c0.16 0 0.32-0.05 0.45-0.15 0.13-0.1 0.22-0.24 0.27-0.4l2.2-7.7H4.96Z" fill="#000000" fill-rule="evenodd"></path></svg>