<svg xmlns="http://www.w3.org/2000/svg" viewBox="0 0 24 24" width="24" height="24"><path d="M12.53 3.47c0.3 0.3 0.3 0.77 0 1.06l-4 4c-0.3 0.3-0.77 0.3-1.06 0-0.3-0.3-0.3-0.77 0-1.06l4-4c0.3-0.3 0.77-0.3 1.06 0Z" fill="#000000" fill-rule="evenodd"></path><path d="M11.47 3.47c0.3-0.3 0.77-0.3 1.06 0l4 4c0.3 0.3 0.3 0.77 0 1.06-0.3 0.3-0.77 0.3-1.06 0l-4-4c-0.3-0.3-0.3-0.77 0-1.06Z" fill="#000000" fill-rule="evenodd"></path><path d="M4 13.75c0.41 0 0.75 0.34 0.75 0.75V19c0 0.14 0.11 0.25 0.25 0.25h14c0.14 0 0.25-0.11 0.25-0.25v-4.5c0-0.41 0.34-0.75 0.75-0.75s0.75 0.34 0.75 0.75V19c0 0.97-0.78 1.75-1.75 1.75H5c-0.97 0-1.75-0.78-1.75-1.75v-4.5c0-0.41 0.34-0.75 0.75-0.75Z" fill="#000000" fill-rule="evenodd"></path><path d="M12 3.25c0.41 0 0.75 0.34 0.75 0.75v10c0 0.41-0.34 0.75-0.75 0.75s-0.75-0.34-0.75-0.75V4c0-0.41 0.34-0.75 0.75-0.75Z" fill="#000000" fill-rule="evenodd"></path></svg>