<svg xmlns="http://www.w3.org/2000/svg" viewBox="0 0 24 24" width="24" height="24"><path d="M12 0.25c0.41 0 0.75 0.34 0.75 0.75v2.25C12.75 3.67 12.41 4 12 4s-0.75-0.33-0.75-0.75V1c0-0.41 0.34-0.75 0.75-0.75ZM12 20c0.41 0 0.75 0.33 0.75 0.75V23c0 0.41-0.34 0.75-0.75 0.75s-0.75-0.34-0.75-0.75v-2.25c0-0.42 0.34-0.75 0.75-0.75Zm11-7.25c0.41 0 0.75-0.34 0.75-0.75s-0.34-0.75-0.75-0.75h-2.25C20.33 11.25 20 11.59 20 12s0.33 0.75 0.75 0.75H23ZM4 12c0 0.41-0.33 0.75-0.75 0.75H1c-0.41 0-0.75-0.34-0.75-0.75S0.59 11.25 1 11.25h2.25C3.67 11.25 4 11.59 4 12Zm15.25 8.3c0.3 0.3 0.77 0.3 1.06 0 0.3-0.28 0.3-0.76 0-1.05l-1.6-1.6c-0.29-0.29-0.76-0.29-1.05 0-0.3 0.3-0.3 0.77 0 1.07l1.59 1.59ZM6.35 6.35c-0.3 0.3-0.77 0.3-1.07 0L3.7 4.75c-0.3-0.3-0.3-0.77 0-1.06 0.3-0.3 0.77-0.3 1.06 0l1.6 1.6c0.29 0.29 0.29 0.76 0 1.05ZM20.3 4.75c0.3-0.3 0.3-0.77 0-1.06-0.3-0.3-0.77-0.3-1.06 0l-1.6 1.6c-0.29 0.29-0.29 0.76 0 1.05 0.3 0.3 0.77 0.3 1.07 0l1.59-1.59ZM6.34 17.65c0.3 0.3 0.3 0.77 0 1.07L4.75 20.3c-0.3 0.3-0.77 0.3-1.06 0-0.3-0.3-0.3-0.77 0-1.06l1.6-1.6c0.29-0.29 0.76-0.29 1.05 0ZM6.75 12c0-2.9 2.35-5.25 5.25-5.25S17.25 9.1 17.25 12 14.9 17.25 12 17.25 6.75 14.9 6.75 12ZM12 5.25c-3.73 0-6.75 3.02-6.75 6.75s3.02 6.75 6.75 6.75 6.75-3.02 6.75-6.75S15.73 5.25 12 5.25Z" fill="#000000" fill-rule="evenodd"></path></svg>