<svg xmlns="http://www.w3.org/2000/svg" viewBox="0 0 24 24" width="24" height="24"><path d="M17.52 21.76c-0.29 0-0.57-0.08-0.81-0.24l-4.71-3-4.4 2.8c-0.28 0.18-0.62 0.27-0.95 0.26-0.34-0.01-0.66-0.13-0.93-0.33-0.28-0.2-0.5-0.48-0.62-0.81-0.12-0.33-0.13-0.68-0.04-1.02l1.27-5-4.26-3.6c-0.25-0.2-0.42-0.47-0.51-0.77-0.09-0.3-0.08-0.63 0.03-0.93 0.09-0.3 0.27-0.55 0.51-0.74 0.24-0.2 0.54-0.3 0.85-0.32L8.48 7.7l2.1-5.23c0.1-0.29 0.3-0.54 0.56-0.7C11.39 1.58 11.7 1.5 12 1.5c0.31 0 0.61 0.1 0.87 0.26 0.26 0.18 0.46 0.44 0.57 0.73l2.06 5.18 5.56 0.4c0.3 0 0.6 0.12 0.84 0.3 0.25 0.2 0.43 0.46 0.52 0.75 0.1 0.3 0.11 0.62 0.03 0.93-0.09 0.3-0.27 0.57-0.51 0.77l-4.24 3.53 1.35 5.44c0.08 0.3 0.07 0.62-0.04 0.92-0.1 0.3-0.3 0.55-0.55 0.73-0.27 0.21-0.6 0.32-0.94 0.32Zm-5.55-4.74c0.27 0 0.54 0.08 0.78 0.22l4.73 3-1.32-5.46c-0.08-0.28-0.08-0.57 0-0.85 0.09-0.28 0.25-0.53 0.48-0.73l4.25-3.54v-0.1L15.34 9.2c-0.3-0.02-0.58-0.13-0.81-0.3C14.29 8.72 14.1 8.48 14 8.2l-2.06-5.19-2.13 5.2c-0.1 0.27-0.29 0.5-0.52 0.67-0.24 0.18-0.52 0.29-0.81 0.3L2.95 9.54v0.1l4.24 3.53c0.23 0.2 0.4 0.45 0.49 0.73 0.08 0.29 0.08 0.59 0 0.87l-1.27 5c-0.01 0.05-0.01 0.1 0 0.14 0.02 0.04 0.05 0.08 0.09 0.11 0.03 0.02 0.06 0.03 0.1 0.03 0.03 0 0.07 0 0.1-0.03l4.39-2.79c0.27-0.15 0.57-0.22 0.88-0.2Z" fill="#000000"></path></svg>