<svg xmlns="http://www.w3.org/2000/svg" viewBox="0 0 24 24" width="24" height="24"><path d="M21.73 9V8.93L20.39 4.4c-0.09-0.3-0.28-0.57-0.54-0.76-0.26-0.2-0.58-0.29-0.9-0.29H5.07c-0.33 0-0.64 0.1-0.9 0.29C3.91 3.84 3.72 4.1 3.63 4.4L2.28 8.9V9L2.26 9.1v1.44c0 0.95 0.4 1.87 1.1 2.54 0.7 0.68 1.66 1.06 2.65 1.06s1.95-0.38 2.65-1.06c0.13-0.12 0.24-0.25 0.35-0.38 0.11 0.13 0.22 0.27 0.35 0.38 0.7 0.68 1.66 1.06 2.65 1.06s1.95-0.38 2.65-1.06c0.13-0.12 0.24-0.25 0.35-0.38 0.11 0.13 0.22 0.27 0.35 0.38 0.7 0.68 1.66 1.06 2.65 1.06s1.95-0.38 2.65-1.06c0.7-0.67 1.1-1.59 1.1-2.54V9.11L21.74 9h-0.01ZM7.6 12.1c-0.42 0.4-0.99 0.63-1.59 0.63-0.6 0-1.17-0.23-1.59-0.63-0.42-0.4-0.66-0.95-0.66-1.53V9.84h4.5v0.72c0 0.58-0.24 1.12-0.66 1.53Zm6 0c-0.42 0.4-0.99 0.63-1.59 0.63-0.6 0-1.17-0.23-1.59-0.63-0.42-0.4-0.66-0.95-0.66-1.53V9.84h4.5v0.72c0 0.58-0.24 1.12-0.66 1.53Zm6 0c-0.42 0.4-0.99 0.63-1.59 0.63-0.6 0-1.17-0.23-1.59-0.63-0.42-0.4-0.66-0.95-0.66-1.53V9.84h4.5v0.72c0 0.58-0.24 1.12-0.66 1.53Z" fill="#000000"></path><path d="M3.75 14.82v4.38c0 0.38 0.16 0.75 0.44 1.02s0.66 0.42 1.06 0.42h13.5c0.4 0 0.78-0.15 1.06-0.42s0.44-0.64 0.44-1.02v-4.38C19.57 15.2 18.8 15.4 18 15.4c-1.11 0-2.18-0.4-3-1.1-0.82 0.7-1.89 1.1-3 1.1S9.82 15 9 14.3c-0.82 0.7-1.89 1.1-3 1.1-0.8 0-1.57-0.2-2.25-0.58Z" fill="#000000" fill-rule="evenodd"></path></svg>