<svg xmlns="http://www.w3.org/2000/svg" viewBox="0 0 24 24" width="24" height="24"><path d="M10.88 3.75c-3.94 0-7.13 3.19-7.13 7.13 0 3.93 3.19 7.12 7.13 7.12C14.8 18 18 14.81 18 10.87c0-3.93-3.19-7.12-7.13-7.12Zm-8.63 7.13c0-4.77 3.86-8.63 8.63-8.63 4.76 0 8.62 3.86 8.62 8.63 0 4.76-3.86 8.62-8.63 8.62-4.76 0-8.62-3.86-8.62-8.63Z" fill="#000000" fill-rule="evenodd"></path><path d="M15.91 15.91c0.3-0.29 0.77-0.29 1.06 0l4.56 4.56c0.3 0.3 0.3 0.77 0 1.06-0.3 0.3-0.77 0.3-1.06 0l-4.56-4.56c-0.29-0.29-0.29-0.76 0-1.06Z" fill="#000000" fill-rule="evenodd"></path></svg>