<svg xmlns="http://www.w3.org/2000/svg" viewBox="0 0 24 24" width="24" height="24"><path d="M12.51 3.77c-2-0.12-3.99 0.49-5.57 1.72-1.59 1.23-2.67 3-3.05 4.98-0.37 1.97-0.01 4 1 5.73 0.12 0.18 0.15 0.4 0.09 0.6l-0.89 3.1 3.11-0.88c0.2-0.06 0.42-0.03 0.6 0.08 1.73 1.02 3.76 1.38 5.73 1 1.98-0.37 3.75-1.45 4.98-3.04 1.23-1.58 1.84-3.57 1.72-5.57-0.13-2-0.98-3.9-2.4-5.32-1.42-1.42-3.31-2.27-5.32-2.4Zm-5.2 16.78c1.98 1.08 4.28 1.45 6.5 1.03 2.34-0.44 4.43-1.72 5.88-3.6 1.46-1.87 2.18-4.22 2.03-6.58-0.14-2.37-1.15-4.6-2.83-6.29-1.68-1.68-3.92-2.69-6.29-2.83-2.36-0.15-4.7 0.57-6.58 2.03-1.88 1.45-3.16 3.54-3.6 5.88C2 12.4 2.37 14.7 3.45 16.69l-0.8 2.8c-0.07 0.26-0.08 0.54-0.01 0.8 0.07 0.25 0.2 0.49 0.4 0.68 0.18 0.19 0.42 0.32 0.68 0.39 0.25 0.07 0.53 0.06 0.78-0.01l2.8-0.8Z" fill="#000000" fill-rule="evenodd"></path><path d="M16.27 13.74c0.36 0.2 0.48 0.67 0.28 1.03-0.46 0.8-1.13 1.46-1.92 1.92-0.8 0.46-1.7 0.7-2.63 0.7-0.92 0-1.83-0.24-2.63-0.7-0.8-0.46-1.46-1.13-1.92-1.92-0.2-0.36-0.08-0.82 0.28-1.03 0.36-0.2 0.81-0.08 1.02 0.27 0.33 0.58 0.8 1.05 1.37 1.38 0.57 0.33 1.22 0.5 1.88 0.5 0.66 0 1.3-0.17 1.88-0.5 0.57-0.33 1.04-0.8 1.37-1.38 0.2-0.35 0.66-0.48 1.02-0.27Z" fill="#000000" fill-rule="evenodd"></path></svg>