<svg xmlns="http://www.w3.org/2000/svg" viewBox="0 0 24 24" width="24" height="24"><path d="M21.5 19.5c0.4 0 0.78-0.16 1.06-0.44S23 18.4 23 18v-2.33c0-0.34-0.12-0.68-0.34-0.94-0.21-0.27-0.52-0.46-0.86-0.52-0.5-0.1-0.96-0.39-1.29-0.79C20.18 13.02 20 12.52 20 12c0-0.52 0.18-1.02 0.51-1.42 0.32-0.4 0.78-0.68 1.29-0.78 0.34-0.07 0.64-0.26 0.86-0.53 0.21-0.26 0.33-0.6 0.34-0.94V6c0-0.4-0.16-0.78-0.44-1.06S21.9 4.5 21.5 4.5h-18c-0.4 0-0.78 0.16-1.06 0.44S2 5.6 2 6v2.33c0 0.34 0.12 0.68 0.34 0.94 0.21 0.27 0.52 0.46 0.86 0.52 0.5 0.1 0.96 0.39 1.29 0.79C4.82 10.98 5 11.48 5 12c0 0.52-0.18 1.02-0.51 1.42-0.32 0.4-0.78 0.68-1.29 0.78-0.34 0.07-0.64 0.26-0.86 0.53-0.21 0.26-0.33 0.6-0.34 0.94V18c0 0.4 0.16 0.78 0.44 1.06S3.1 19.5 3.5 19.5h18ZM10.25 18H21.5v-2.33c-0.85-0.17-1.6-0.63-2.15-1.3-0.55-0.67-0.85-1.5-0.85-2.37 0-0.86 0.3-1.7 0.84-2.37 0.55-0.67 1.31-1.13 2.16-1.3V6H10.25v12ZM8.75 6v12H3.5v-2.33c0.85-0.17 1.61-0.63 2.16-1.3S6.5 12.87 6.5 12c0-0.86-0.3-1.7-0.85-2.37C5.1 8.96 4.35 8.5 3.5 8.33V6h5.25Z" fill="#000000" fill-rule="evenodd"></path></svg>