<svg xmlns="http://www.w3.org/2000/svg" width="17.314" height="22" viewBox="0 0 17.314 22" fill="none">
  <path d="M 1.695 0 C 0.405 0 -0.411 1.386 0.215 2.514 L 3.386 8.224 C 3.723 8.832 4.216 9.322 4.799 9.656 C 3.028 10.879 1.864 12.922 1.864 15.231 C 1.864 18.961 4.903 22 8.634 22 C 12.365 22 15.403 18.961 15.403 15.231 C 15.403 12.979 14.297 10.98 12.599 9.749 C 13.273 9.407 13.84 8.862 14.208 8.168 C 14.612 7.404 15.112 6.451 15.515 5.662 C 16.007 4.697 16.699 3.315 17.133 2.447 C 17.698 1.319 16.873 0 15.62 0 L 11.049 0 C 10.411 0 9.827 0.359 9.539 0.928 L 8.744 2.5 L 7.956 0.933 C 7.669 0.361 7.084 0 6.444 0 L 1.695 0 Z" fill="currentColor" fill-rule="nonzero"></path>
  <path d="M 8.631 9.587 C 5.524 9.587 2.99 12.12 2.99 15.228 C 2.99 18.336 5.524 20.869 8.631 20.869 C 11.739 20.869 14.272 18.336 14.272 15.228 C 14.272 12.12 11.739 9.587 8.631 9.587 Z" fill="currentColor" fill-rule="nonzero"></path>
  <path d="M 8.636 10.716 C 6.149 10.716 4.123 12.742 4.123 15.229 C 4.123 17.716 6.149 19.742 8.636 19.742 C 11.123 19.742 13.149 17.716 13.149 15.229 C 13.149 12.742 11.123 10.716 8.636 10.716 Z" fill="currentColor" fill-rule="nonzero"></path>
  <path d="M 10.201 16.909 C 10.266 16.904 10.33 16.895 10.393 16.88 L 10.393 17.632 C 10.379 17.634 10.366 17.637 10.352 17.639 C 10.248 17.66 10.141 17.672 10.03 17.672 C 9.972 17.672 9.914 17.669 9.857 17.663 C 9.507 17.632 9.207 17.499 8.954 17.303 C 8.638 17.063 8.4 16.72 8.301 16.32 C 8.292 16.287 8.284 16.253 8.277 16.22 L 8.204 16.298 L 7.945 16.588 L 7.945 17.671 L 7.225 17.671 L 7.225 12.408 L 7.945 12.408 L 7.945 15.43 L 9.385 13.854 L 9.387 13.853 L 10.387 13.853 L 9.458 14.895 C 9.458 14.895 9.248 15.13 9.081 15.391 C 9.014 15.522 8.979 15.657 8.984 15.816 C 8.984 15.915 8.997 16.015 9.023 16.112 C 9.055 16.224 9.104 16.33 9.167 16.426 C 9.233 16.525 9.311 16.609 9.399 16.677 C 9.515 16.766 9.664 16.844 9.844 16.884 C 9.884 16.893 9.925 16.899 9.966 16.904 C 10.04 16.912 10.119 16.915 10.201 16.909 Z" fill="currentColor" fill-rule="evenodd"></path>
  <path d="M 6.63 1.125 L 1.147 1.125 C 0.958 1.125 0.839 1.328 0.931 1.493 L 4.362 7.673 C 4.825 8.506 5.703 9.022 6.655 9.022 L 10.484 9.022 C 10.606 9.022 10.685 8.894 10.63 8.785 L 6.851 1.261 C 6.809 1.178 6.723 1.125 6.63 1.125 Z" fill="currentColor" fill-rule="nonzero"></path>
  <path d="M 10.847 1.125 L 16.124 1.125 C 16.307 1.125 16.428 1.317 16.345 1.482 C 15.972 2.23 15.091 3.991 14.502 5.147 C 14.104 5.928 13.606 6.875 13.203 7.637 C 12.751 8.492 11.863 9.022 10.896 9.022 L 6.7 9.022 L 10.626 1.261 C 10.668 1.178 10.753 1.125 10.847 1.125 Z" fill="currentColor" fill-rule="nonzero"></path>
  <path d="M 14.605 1.125 L 12.683 1.125 L 8.625 9.022 L 10.547 9.022 L 14.605 1.125 Z" fill="currentColor" fill-rule="nonzero"></path>
</svg>