<svg xmlns="http://www.w3.org/2000/svg" viewBox="0 0 24 24" width="24" height="24"><path d="M3 4.75c-0.33 0-0.65 0.13-0.88 0.37C1.88 5.35 1.75 5.67 1.75 6v2.33c0 0.28 0.1 0.56 0.28 0.79 0.18 0.22 0.44 0.37 0.72 0.43 0.56 0.12 1.07 0.42 1.44 0.87 0.36 0.45 0.56 1 0.56 1.58 0 0.58-0.2 1.13-0.56 1.58-0.37 0.45-0.88 0.75-1.44 0.87-0.28 0.06-0.54 0.21-0.72 0.43-0.18 0.23-0.28 0.5-0.28 0.8V18c0 0.33 0.13 0.65 0.37 0.88 0.23 0.24 0.55 0.37 0.88 0.37h5V4.75H3Z" fill="#000000"></path><path d="M21 4.75H10.5v14.5H21c0.33 0 0.65-0.13 0.88-0.37 0.24-0.23 0.37-0.55 0.37-0.88v-2.33c0-0.28-0.1-0.56-0.28-0.79-0.18-0.22-0.44-0.37-0.72-0.43-0.56-0.12-1.07-0.42-1.44-0.87-0.36-0.45-0.56-1-0.56-1.58 0-0.58 0.2-1.13 0.56-1.58 0.37-0.45 0.88-0.75 1.44-0.87 0.28-0.06 0.54-0.21 0.72-0.43 0.18-0.23 0.28-0.5 0.28-0.8V6c0-0.33-0.13-0.65-0.37-0.88-0.23-0.24-0.55-0.37-0.88-0.37Z" fill="#000000"></path></svg>