<svg xmlns="http://www.w3.org/2000/svg" viewBox="0 0 24 24" width="24" height="24"><path d="M11.94 10.76c-3.1 0-5.63 2.52-5.63 5.62S8.84 22 11.94 22s5.62-2.52 5.62-5.62-2.52-5.62-5.62-5.62Z" fill="#FEE269"></path><path d="M11.95 11.78c-2.54 0-4.6 2.06-4.6 4.6 0 2.53 2.06 4.6 4.6 4.6 2.53 0 4.6-2.07 4.6-4.6 0-2.54-2.07-4.6-4.6-4.6Z" fill="#FCB90B"></path><path d="M9.9 2H4.12C3.92 2 3.81 2.2 3.9 2.37l3.64 6.4c0.47 0.82 1.35 1.33 2.3 1.33h4.13c0.12 0 0.2-0.14 0.14-0.24l-3.98-7.73C10.1 2.05 10 2 9.91 2Z" fill="#4094D9"></path><path d="M14.33 2h5.58c0.18 0 0.3 0.2 0.22 0.36l-1.94 3.76c-0.43 0.82-0.97 1.82-1.4 2.6-0.46 0.85-1.34 1.38-2.3 1.38H9.96l4.14-7.97C14.15 2.05 14.24 2 14.33 2Z" fill="#64B3F4"></path><path d="M18.3 2h-2.02l-4.27 8.1h2.03L18.3 2Z" fill="#A0D0F8"></path><path d="M13.67 18.1c0.07 0 0.13-0.02 0.2-0.03v0.76h-0.04c-0.11 0.03-0.22 0.04-0.34 0.04h-0.18c-0.36-0.04-0.67-0.18-0.94-0.37-0.32-0.25-0.57-0.6-0.67-1l-0.03-0.1-0.07 0.07-0.27 0.3v1.1h-0.75v-5.34h0.75v3.06l1.5-1.6h1.03l-0.96 1.06s-0.22 0.24-0.4 0.5c-0.06 0.14-0.1 0.27-0.1 0.44 0 0.1 0.02 0.2 0.05 0.3 0.03 0.11 0.08 0.22 0.15 0.32 0.06 0.1 0.14 0.18 0.24 0.25 0.12 0.1 0.27 0.17 0.46 0.21l0.13 0.02h0.24Z" fill="#FFFBC3" fill-rule="evenodd"></path></svg>