<svg xmlns="http://www.w3.org/2000/svg" viewBox="0 0 24 24" width="24" height="24"><path d="M3.25 6c0-0.41 0.34-0.75 0.75-0.75h16c0.41 0 0.75 0.34 0.75 0.75S20.41 6.75 20 6.75H4C3.59 6.75 3.25 6.41 3.25 6Z" fill="#000000" fill-rule="evenodd"></path><path d="M5 5.75c0.41 0 0.75 0.34 0.75 0.75V19c0 0.69 0.56 1.25 1.25 1.25h10c0.69 0 1.25-0.56 1.25-1.25V6.5c0-0.41 0.34-0.75 0.75-0.75s0.75 0.34 0.75 0.75V19c0 1.52-1.23 2.75-2.75 2.75H7c-1.52 0-2.75-1.23-2.75-2.75V6.5c0-0.41 0.34-0.75 0.75-0.75Z" fill="#000000" fill-rule="evenodd"></path><path d="M10 3.75C9.31 3.75 8.75 4.31 8.75 5v1c0 0.41-0.34 0.75-0.75 0.75S7.25 6.41 7.25 6V5c0-1.52 1.23-2.75 2.75-2.75h4c1.52 0 2.75 1.23 2.75 2.75v1c0 0.41-0.34 0.75-0.75 0.75S15.25 6.41 15.25 6V5c0-0.69-0.56-1.25-1.25-1.25h-4Z" fill="#000000" fill-rule="evenodd"></path><path d="M9.5 10.25c0.41 0 0.75 0.34 0.75 0.75v6c0 0.41-0.34 0.75-0.75 0.75S8.75 17.41 8.75 17v-6c0-0.41 0.34-0.75 0.75-0.75Z" fill="#000000" fill-rule="evenodd"></path><path d="M14.5 10.25c0.41 0 0.75 0.34 0.75 0.75v6c0 0.41-0.34 0.75-0.75 0.75s-0.75-0.34-0.75-0.75v-6c0-0.41 0.34-0.75 0.75-0.75Z" fill="#000000" fill-rule="evenodd"></path></svg>