<svg xmlns="http://www.w3.org/2000/svg" viewBox="0 0 24 24" width="24" height="24"><path d="M7.88 2.25c0.4 0 0.75 0.34 0.75 0.75v3.75c0 0.41-0.34 0.75-0.76 0.75-0.4 0-0.75-0.34-0.75-0.75V3c0-0.41 0.34-0.75 0.75-0.75Z" fill="#000000" fill-rule="evenodd"></path><path d="M7.88 10.13c0.4 0 0.75 0.33 0.75 0.75V21c0 0.41-0.34 0.75-0.76 0.75-0.4 0-0.75-0.34-0.75-0.75V10.88c0-0.42 0.34-0.75 0.75-0.75Z" fill="#000000" fill-rule="evenodd"></path><path d="M5.37 2.26C5.78 2.33 6.06 2.71 6 3.12L5.25 7.56c0.02 0.67 0.29 1.32 0.77 1.8 0.5 0.49 1.16 0.77 1.86 0.77 0.7 0 1.36-0.28 1.85-0.77 0.48-0.48 0.75-1.13 0.77-1.8L9.76 3.12c-0.07-0.4 0.2-0.8 0.62-0.86 0.4-0.07 0.8 0.2 0.86 0.62l0.75 4.5L12 7.5c0 1.1-0.43 2.14-1.2 2.92-0.78 0.77-1.83 1.2-2.93 1.2-1.09 0-2.14-0.43-2.91-1.2C4.18 9.64 3.75 8.59 3.75 7.5l0.01-0.12 0.75-4.5c0.07-0.41 0.45-0.69 0.86-0.62Z" fill="#000000" fill-rule="evenodd"></path><path d="M19.56 2.39c0.2 0.14 0.32 0.37 0.32 0.61v18c0 0.41-0.34 0.75-0.75 0.75-0.42 0-0.75-0.34-0.75-0.75v-5.25h-4.5c-0.22 0-0.42-0.09-0.56-0.25-0.15-0.16-0.21-0.37-0.2-0.58L13.89 15l-0.75-0.08V14.9v-0.02l0.01-0.1 0.05-0.34c0.04-0.3 0.1-0.73 0.19-1.24 0.17-1.02 0.44-2.41 0.85-3.85 0.4-1.44 0.96-2.96 1.68-4.23 0.72-1.25 1.68-2.37 2.96-2.83 0.23-0.09 0.48-0.05 0.69 0.09Zm-4.83 11.86h3.64v-9.9c-0.4 0.38-0.8 0.9-1.16 1.53-0.64 1.12-1.14 2.5-1.54 3.89-0.38 1.37-0.65 2.7-0.82 3.7l-0.12 0.78Z" fill="#000000" fill-rule="evenodd"></path></svg>