<svg xmlns="http://www.w3.org/2000/svg" viewBox="0 0 24 24" width="24" height="24"><path d="M12 9c0.41 0 0.75 0.34 0.75 0.75v3.75c0 0.41-0.34 0.75-0.75 0.75s-0.75-0.34-0.75-0.75V9.75C11.25 9.34 11.59 9 12 9Z" fill="#000000" fill-rule="evenodd"></path><path d="M10.88 2.55c0.34-0.2 0.73-0.3 1.12-0.3 0.4 0 0.78 0.1 1.12 0.3 0.35 0.2 0.63 0.48 0.82 0.83l8.25 14.24c0.2 0.35 0.3 0.73 0.3 1.13 0 0.4-0.1 0.78-0.3 1.12-0.2 0.34-0.47 0.63-0.82 0.83-0.34 0.2-0.72 0.3-1.12 0.3H3.75c-0.4 0-0.78-0.1-1.12-0.3C2.28 20.5 2 20.2 1.8 19.87c-0.2-0.34-0.3-0.73-0.3-1.12 0-0.4 0.11-0.78 0.3-1.13l8.26-14.24c0.2-0.35 0.48-0.63 0.82-0.83Zm-0.17 1.2l0.65 0.38L3.1 18.38C3.04 18.48 3 18.61 3 18.75S3.04 19 3.1 19.12c0.06 0.12 0.15 0.21 0.27 0.28 0.11 0.06 0.24 0.1 0.37 0.1h16.5c0.13 0 0.26-0.04 0.37-0.1 0.12-0.07 0.2-0.16 0.27-0.28 0.07-0.11 0.1-0.24 0.1-0.37s-0.03-0.26-0.1-0.38L12.64 4.13c-0.06-0.11-0.16-0.2-0.27-0.27-0.11-0.07-0.24-0.1-0.37-0.1s-0.26 0.03-0.37 0.1c-0.11 0.07-0.2 0.16-0.27 0.27L10.7 3.75Z" fill="#000000" fill-rule="evenodd"></path><path d="M12 17.75c0.55 0 1-0.45 1-1s-0.45-1-1-1-1 0.45-1 1 0.45 1 1 1Z" fill="#000000"></path></svg>